<?xml version="1.0" encoding="UTF-8"?>
<svg version="1.1" xmlns="http://www.w3.org/2000/svg" width="512" height="512">
<path d="M0 0 C1.92366539 -0.00461234 3.84732726 -0.01096749 5.77098179 -0.01890898 C11.04231197 -0.03557954 16.31335182 -0.02736616 21.58468294 -0.0149641 C27.27529633 -0.00590669 32.96586011 -0.01988679 38.65646362 -0.03088379 C49.79853197 -0.04866615 60.94049251 -0.04483024 72.08256507 -0.03323323 C81.1383145 -0.02419809 90.19403373 -0.02297526 99.24978638 -0.02732849 C100.53886259 -0.02794142 101.8279388 -0.02855436 103.15607792 -0.02918586 C105.77484728 -0.03046477 108.39361663 -0.03176162 111.01238596 -0.03307623 C134.86618303 -0.04415611 158.71991886 -0.03266768 182.57370616 -0.01170584 C204.33977764 0.00727597 226.10575551 0.00557743 247.87182617 -0.0135498 C272.33791615 -0.03497796 296.80394602 -0.04338257 321.27004528 -0.03110075 C323.87915738 -0.02982656 326.48826948 -0.02856908 329.09738159 -0.02732849 C331.02295917 -0.02640284 331.02295917 -0.02640284 332.98743731 -0.02545848 C342.03184966 -0.02200542 351.07622878 -0.027833 360.12063599 -0.0372467 C371.14340795 -0.0484674 382.16606598 -0.04542503 393.18882489 -0.02412373 C398.81233697 -0.0136144 404.43565911 -0.00948969 410.05916977 -0.02272034 C415.20853713 -0.03465218 420.35753876 -0.02806829 425.50687301 -0.00681013 C427.36810885 -0.00234747 429.22937569 -0.00460275 431.09059155 -0.01431328 C443.69348701 -0.07501492 453.91299977 0.63218761 463.48217773 9.64074707 C469.05250426 15.78997589 470.29727569 21.6162978 470.30501175 29.72448349 C470.3080907 30.82187755 470.3080907 30.82187755 470.31123185 31.94144118 C470.31691055 34.40614764 470.31544353 36.87079838 470.31402588 39.33551025 C470.31660901 41.11517535 470.31962203 42.89483986 470.32302928 44.67450356 C470.33110856 49.57550405 470.33288937 54.47648989 470.33362675 59.37749624 C470.33547568 64.65915922 470.34302219 69.94081457 470.34976196 75.22247314 C470.36335222 86.77612293 470.36937103 98.32976926 470.37377262 109.88342571 C470.37653377 117.09513866 470.38077088 124.30685027 470.38527679 131.51856232 C470.39747017 151.47883393 470.40776948 171.43910447 470.41115189 191.39937973 C470.41137145 192.67723481 470.41159102 193.95508989 470.41181724 195.27166785 C470.41203552 196.55260931 470.41225379 197.83355077 470.41247869 199.15330863 C470.41292215 201.74905634 470.41336872 204.34480405 470.41381836 206.94055176 C470.41403979 208.22813685 470.41426122 209.51572194 470.41448936 210.84232476 C470.41843824 231.71062947 470.43589471 252.57889927 470.45917788 273.44719049 C470.48287981 294.86335217 470.4953532 316.27949632 470.4965198 337.69567132 C470.4974372 349.72370571 470.50320568 361.75169462 470.52133942 373.77971649 C470.53672474 384.02093643 470.54187012 394.26209685 470.53360131 404.50332615 C470.52968931 409.72957757 470.53065129 414.95570906 470.54465866 420.1819458 C470.5573644 424.96623514 470.55622933 429.750314 470.54406795 434.53460291 C470.54210518 436.26543723 470.54521605 437.99628628 470.55391231 439.72709987 C470.56499043 442.08099535 470.55752663 444.43414613 470.54552078 446.78802109 C470.54641641 448.7486822 470.54641641 448.7486822 470.54733014 450.74895263 C469.66951929 459.57760568 465.68910615 465.60796085 459.17358398 471.50793457 C452.79217412 475.70835625 446.98475084 476.65741729 439.43163109 476.64215565 C438.64322954 476.64450788 437.85482799 476.64686011 437.04253548 476.64928362 C434.38457495 476.6559729 431.72666331 476.65551542 429.06869507 476.65510559 C427.15021205 476.65840426 425.23172972 476.66212983 423.31324828 476.66624707 C418.02845737 476.67627482 412.74367783 476.67998511 407.45887876 476.68263638 C401.76408482 476.68653711 396.0692999 476.69611558 390.37451172 476.70484924 C376.61553793 476.72461979 362.85656339 476.73468044 349.09757894 476.74357703 C342.62060049 476.74795881 336.14362286 476.75332589 329.66664505 476.7585659 C308.13996965 476.77557847 286.61329555 476.79009812 265.08661461 476.79731464 C263.69444215 476.7977894 262.30226968 476.79826529 260.91009722 476.79874231 C259.87451115 476.79909687 259.87451115 476.79909687 258.81800415 476.7994586 C255.32015706 476.80065979 251.82230997 476.80187524 248.32446289 476.80310059 C247.63030533 476.80334074 246.93614777 476.80358089 246.22095514 476.80382831 C223.71571669 476.81172089 201.21053096 476.83515192 178.70531553 476.86765653 C154.91058821 476.90196085 131.11589817 476.9216652 107.3211447 476.92495888 C94.35070415 476.92712536 81.38034107 476.93589417 68.40992355 476.96142006 C57.36506398 476.98310605 46.3203007 476.99118778 35.27542226 476.98145328 C29.63978878 476.97690258 24.00435405 476.97883977 18.36874771 476.99821472 C13.2080577 477.01580378 8.04771208 477.0148831 2.88701864 476.99931743 C1.02155795 476.99693491 -0.84392632 477.00129822 -2.7093509 477.01314608 C-15.12573587 477.087112 -25.6858235 476.56345388 -35.08402312 467.50896358 C-42.78270028 458.66751549 -42.53907495 448.98128482 -42.46133423 437.8963623 C-42.46710062 436.10468728 -42.47504521 434.31301817 -42.48497045 432.52136135 C-42.50579589 427.6148159 -42.49554813 422.70875823 -42.48003936 417.80221128 C-42.46871219 412.50422623 -42.48619536 407.2063242 -42.49993896 401.90835571 C-42.52216125 391.53629489 -42.51737462 381.16441508 -42.50287576 370.79234719 C-42.49157958 362.3620685 -42.49005427 353.93184049 -42.49549484 345.5015564 C-42.49626101 344.30129175 -42.49702717 343.1010271 -42.49781656 341.86439079 C-42.4994152 339.42600543 -42.50103626 336.98762008 -42.50267951 334.54923475 C-42.51693406 311.68945939 -42.50054886 288.82978433 -42.47367768 265.97002542 C-42.4513392 246.35923919 -42.45521941 226.74860094 -42.47827148 207.13781738 C-42.50503463 184.35932637 -42.51556079 161.58092324 -42.50021017 138.80241871 C-42.49861744 136.37305007 -42.49704558 133.94368141 -42.49549484 131.51431274 C-42.49472346 130.31904589 -42.49395209 129.12377903 -42.49315733 127.89229196 C-42.48884189 119.47304418 -42.49612356 111.05385218 -42.50789261 102.63461304 C-42.52192181 92.37304665 -42.51810864 82.11167149 -42.49148889 71.85012698 C-42.47835654 66.61542281 -42.47318863 61.38103735 -42.48973465 56.1463356 C-42.50465895 51.35215941 -42.49640489 46.55859666 -42.46984689 41.76447594 C-42.46427247 40.03244765 -42.46707901 38.30036728 -42.47922583 36.56837261 C-42.5458071 26.28387018 -42.15842752 17.63141553 -35.08402312 9.50690556 C-24.95247408 -0.25411425 -13.24474329 -0.06910188 0 0 Z " fill="#FEFEFE" transform="translate(41.826416015625,17.4920654296875)"/>
<path d="M0 0 C0.84828369 0.34385742 1.69656738 0.68771484 2.57055664 1.04199219 C3.69820435 1.51439331 3.69820435 1.51439331 4.84863281 1.99633789 C9.87217129 3.24551972 14.34289884 0.69254049 18.90258789 -1.25878906 C26.79655844 -4.52327175 34.76928893 -6.59183108 43.09008789 -8.44628906 C44.27602539 -8.7234375 45.46196289 -9.00058594 46.68383789 -9.28613281 C50.14310033 -10.06914154 53.6070454 -10.77738658 57.09008789 -11.44628906 C58.14196289 -11.65382812 59.19383789 -11.86136719 60.27758789 -12.07519531 C96.65428706 -18.09587585 135.20388398 -11.30998321 168.48071289 3.92871094 C169.26994141 4.28707031 170.05916992 4.64542969 170.87231445 5.01464844 C173.9082719 7.12150398 175.27349632 9.33867693 177.09008789 12.55371094 C177.58227921 15.91571617 177.58227921 15.91571617 177.57110596 19.65316772 C177.57452366 20.34433107 177.57794136 21.03549442 177.58146262 21.74760211 C177.58802302 24.05107675 177.5660979 26.353372 177.54418945 28.65673828 C177.54306057 30.31277438 177.54369564 31.96881248 177.54595947 33.62484741 C177.54710595 38.11212838 177.52360743 42.59898065 177.49566364 47.08616209 C177.47063895 51.77866149 177.46830714 56.47117098 177.46356201 61.16372681 C177.45113538 70.04594625 177.41831798 78.9279685 177.37816405 87.81010115 C177.33343664 97.92368385 177.31145686 108.03727603 177.29138231 118.15093303 C177.24958509 138.95196901 177.17923908 159.75282755 177.09008789 180.55371094 C177.76193115 180.67705811 178.43377441 180.80040527 179.12597656 180.92749023 C180.01518799 181.09676025 180.90439941 181.26603027 181.82055664 181.44042969 C182.6986499 181.60502686 183.57674316 181.76962402 184.48144531 181.93920898 C190.93340344 183.45905724 195.78688018 186.49111363 200.09008789 191.55371094 C202.98136007 196.28119458 202.57482371 201.18252532 202.09008789 206.55371094 C200.32404357 212.05961381 196.80367733 215.39148092 192.09008789 218.55371094 C188.07919153 220.32997006 183.96702336 221.64003958 179.77758789 222.92871094 C178.68124023 223.28320312 177.58489258 223.63769531 176.45532227 224.00292969 C168.47305121 226.55371094 168.47305121 226.55371094 166.09008789 226.55371094 C172.06783934 233.67664974 178.62841572 240.15092589 185.27612305 246.64379883 C186.67165149 248.00901046 188.060639 249.38089812 189.44946289 250.75292969 C190.67874512 251.95695435 190.67874512 251.95695435 191.93286133 253.18530273 C195.18954491 256.76079927 197.09008789 259.14141891 197.09008789 264.05371094 C195.87677832 268.30029442 194.63290173 269.93510941 191.09008789 272.55371094 C187.77758789 273.74121094 187.77758789 273.74121094 184.09008789 273.55371094 C176.17875701 269.31265643 169.94097333 261.59505111 163.71508789 255.24121094 C162.07947851 253.57793237 160.44238252 251.91618391 158.80233765 250.25727844 C157.78897983 249.23170584 156.77830721 248.20347133 155.7706604 247.17228699 C153.18853616 244.52426463 153.18853616 244.52426463 150.09008789 242.55371094 C149.94313477 243.15054687 149.79618164 243.74738281 149.64477539 244.36230469 C148.06788174 250.46143934 146.22337525 256.45981331 144.21508789 262.42871094 C143.98289551 263.15372803 143.75070312 263.87874512 143.51147461 264.62573242 C141.50474159 270.45092615 138.58684427 273.82976011 133.46508789 277.36621094 C127.92490221 279.31553553 122.34174171 279.72235857 116.74243164 277.70996094 C108.50318105 273.15142229 106.26109053 263.67703381 103.41821289 255.21777344 C102.92729156 253.77692886 102.92729156 253.77692886 102.42645264 252.30697632 C101.74146322 250.29264997 101.05923021 248.27738435 100.37963867 246.26123047 C99.3354572 243.16497982 98.28181698 240.07206774 97.22680664 236.97949219 C96.56088737 235.01744078 95.89550347 233.05520756 95.23071289 231.09277344 C94.91515442 230.16574615 94.59959595 229.23871887 94.2744751 228.28359985 C93.98707458 227.42865936 93.69967407 226.57371887 93.40356445 225.69287109 C93.14915588 224.93978668 92.89474731 224.18670227 92.63262939 223.41079712 C92.09008789 221.55371094 92.09008789 221.55371094 92.09008789 219.55371094 C64.60490414 221.3574542 37.94156808 223.71639991 12.98901367 236.64208984 C9.57393117 238.28157532 6.56314522 238.02952149 2.9934082 236.87646484 C0.54416794 235.92201971 -1.86988981 234.90412523 -4.28491211 233.86621094 C-45.34219019 216.96377691 -92.71546408 214.47562144 -134.30444336 231.72167969 C-136.80330857 232.78446389 -139.2835464 233.8700501 -141.74658203 235.01342773 C-145.96002565 236.93570299 -149.17018951 238.1566934 -153.90991211 237.55371094 C-157.38965424 235.33932958 -159.50000164 233.41898355 -160.90991211 229.55371094 C-161.1046298 226.62888334 -161.18826998 223.79962392 -161.17733765 220.87490845 C-161.18186876 219.98959328 -161.18639987 219.10427811 -161.19106829 218.19213521 C-161.20374874 215.2196715 -161.20208957 212.24739015 -161.20043945 209.27490234 C-161.20642241 207.14614119 -161.21322741 205.01738221 -161.22079468 202.8886261 C-161.23848515 197.10144301 -161.24315133 191.31431904 -161.24442625 185.52711153 C-161.24632387 180.69847721 -161.2536798 175.86985671 -161.26077044 171.0412277 C-161.27706343 159.6505249 -161.28193854 148.25985373 -161.28051758 136.86914062 C-161.27931576 125.11300136 -161.30042356 113.35704557 -161.3320049 101.60095274 C-161.35814203 91.51253031 -161.36888596 81.42416789 -161.36760676 71.33571184 C-161.36709639 65.30819082 -161.37282104 59.28083283 -161.39396286 53.25334549 C-161.41330206 47.5848932 -161.41349916 41.91676017 -161.3989296 36.24829674 C-161.39683507 34.16738482 -161.40158054 32.08645315 -161.41365051 30.00557518 C-161.42905768 27.16549991 -161.4198247 24.32653168 -161.40438843 21.48648071 C-161.41467555 20.66235046 -161.42496268 19.83822021 -161.43556154 18.98911631 C-161.37225435 13.72101752 -160.38029038 10.74614636 -156.90991211 6.55371094 C-142.29704967 -4.32708951 -119.55386401 -8.45330069 -101.90991211 -11.44628906 C-100.67370117 -11.67058594 -99.43749023 -11.89488281 -98.16381836 -12.12597656 C-65.51120876 -17.17071836 -30.41154857 -12.66534226 0 0 Z " fill="#082C76" transform="translate(247.909912109375,171.4462890625)"/>
<path d="M0 0 C1.92366539 -0.00461234 3.84732726 -0.01096749 5.77098179 -0.01890898 C11.04231197 -0.03557954 16.31335182 -0.02736616 21.58468294 -0.0149641 C27.27529633 -0.00590669 32.96586011 -0.01988679 38.65646362 -0.03088379 C49.79853197 -0.04866615 60.94049251 -0.04483024 72.08256507 -0.03323323 C81.1383145 -0.02419809 90.19403373 -0.02297526 99.24978638 -0.02732849 C100.53886259 -0.02794142 101.8279388 -0.02855436 103.15607792 -0.02918586 C105.77484728 -0.03046477 108.39361663 -0.03176162 111.01238596 -0.03307623 C134.86618303 -0.04415611 158.71991886 -0.03266768 182.57370616 -0.01170584 C204.33977764 0.00727597 226.10575551 0.00557743 247.87182617 -0.0135498 C272.33791615 -0.03497796 296.80394602 -0.04338257 321.27004528 -0.03110075 C323.87915738 -0.02982656 326.48826948 -0.02856908 329.09738159 -0.02732849 C331.02295917 -0.02640284 331.02295917 -0.02640284 332.98743731 -0.02545848 C342.03184966 -0.02200542 351.07622878 -0.027833 360.12063599 -0.0372467 C371.14340795 -0.0484674 382.16606598 -0.04542503 393.18882489 -0.02412373 C398.81233697 -0.0136144 404.43565911 -0.00948969 410.05916977 -0.02272034 C415.20853713 -0.03465218 420.35753876 -0.02806829 425.50687301 -0.00681013 C427.36810885 -0.00234747 429.22937569 -0.00460275 431.09059155 -0.01431328 C443.69348701 -0.07501492 453.91299977 0.63218761 463.48217773 9.64074707 C469.05250426 15.78997589 470.29727569 21.6162978 470.30501175 29.72448349 C470.3080907 30.82187755 470.3080907 30.82187755 470.31123185 31.94144118 C470.31691055 34.40614764 470.31544353 36.87079838 470.31402588 39.33551025 C470.31660901 41.11517535 470.31962203 42.89483986 470.32302928 44.67450356 C470.33110856 49.57550405 470.33288937 54.47648989 470.33362675 59.37749624 C470.33547568 64.65915922 470.34302219 69.94081457 470.34976196 75.22247314 C470.36335222 86.77612293 470.36937103 98.32976926 470.37377262 109.88342571 C470.37653377 117.09513866 470.38077088 124.30685027 470.38527679 131.51856232 C470.39747017 151.47883393 470.40776948 171.43910447 470.41115189 191.39937973 C470.41137145 192.67723481 470.41159102 193.95508989 470.41181724 195.27166785 C470.41203552 196.55260931 470.41225379 197.83355077 470.41247869 199.15330863 C470.41292215 201.74905634 470.41336872 204.34480405 470.41381836 206.94055176 C470.41403979 208.22813685 470.41426122 209.51572194 470.41448936 210.84232476 C470.41843824 231.71062947 470.43589471 252.57889927 470.45917788 273.44719049 C470.48287981 294.86335217 470.4953532 316.27949632 470.4965198 337.69567132 C470.4974372 349.72370571 470.50320568 361.75169462 470.52133942 373.77971649 C470.53672474 384.02093643 470.54187012 394.26209685 470.53360131 404.50332615 C470.52968931 409.72957757 470.53065129 414.95570906 470.54465866 420.1819458 C470.5573644 424.96623514 470.55622933 429.750314 470.54406795 434.53460291 C470.54210518 436.26543723 470.54521605 437.99628628 470.55391231 439.72709987 C470.56499043 442.08099535 470.55752663 444.43414613 470.54552078 446.78802109 C470.54641641 448.7486822 470.54641641 448.7486822 470.54733014 450.74895263 C469.66951929 459.57760568 465.68910615 465.60796085 459.17358398 471.50793457 C452.79217412 475.70835625 446.98475084 476.65741729 439.43163109 476.64215565 C438.64322954 476.64450788 437.85482799 476.64686011 437.04253548 476.64928362 C434.38457495 476.6559729 431.72666331 476.65551542 429.06869507 476.65510559 C427.15021205 476.65840426 425.23172972 476.66212983 423.31324828 476.66624707 C418.02845737 476.67627482 412.74367783 476.67998511 407.45887876 476.68263638 C401.76408482 476.68653711 396.0692999 476.69611558 390.37451172 476.70484924 C376.61553793 476.72461979 362.85656339 476.73468044 349.09757894 476.74357703 C342.62060049 476.74795881 336.14362286 476.75332589 329.66664505 476.7585659 C308.13996965 476.77557847 286.61329555 476.79009812 265.08661461 476.79731464 C263.69444215 476.7977894 262.30226968 476.79826529 260.91009722 476.79874231 C259.87451115 476.79909687 259.87451115 476.79909687 258.81800415 476.7994586 C255.32015706 476.80065979 251.82230997 476.80187524 248.32446289 476.80310059 C247.63030533 476.80334074 246.93614777 476.80358089 246.22095514 476.80382831 C223.71571669 476.81172089 201.21053096 476.83515192 178.70531553 476.86765653 C154.91058821 476.90196085 131.11589817 476.9216652 107.3211447 476.92495888 C94.35070415 476.92712536 81.38034107 476.93589417 68.40992355 476.96142006 C57.36506398 476.98310605 46.3203007 476.99118778 35.27542226 476.98145328 C29.63978878 476.97690258 24.00435405 476.97883977 18.36874771 476.99821472 C13.2080577 477.01580378 8.04771208 477.0148831 2.88701864 476.99931743 C1.02155795 476.99693491 -0.84392632 477.00129822 -2.7093509 477.01314608 C-15.12573587 477.087112 -25.6858235 476.56345388 -35.08402312 467.50896358 C-42.78270028 458.66751549 -42.53907495 448.98128482 -42.46133423 437.8963623 C-42.46710062 436.10468728 -42.47504521 434.31301817 -42.48497045 432.52136135 C-42.50579589 427.6148159 -42.49554813 422.70875823 -42.48003936 417.80221128 C-42.46871219 412.50422623 -42.48619536 407.2063242 -42.49993896 401.90835571 C-42.52216125 391.53629489 -42.51737462 381.16441508 -42.50287576 370.79234719 C-42.49157958 362.3620685 -42.49005427 353.93184049 -42.49549484 345.5015564 C-42.49626101 344.30129175 -42.49702717 343.1010271 -42.49781656 341.86439079 C-42.4994152 339.42600543 -42.50103626 336.98762008 -42.50267951 334.54923475 C-42.51693406 311.68945939 -42.50054886 288.82978433 -42.47367768 265.97002542 C-42.4513392 246.35923919 -42.45521941 226.74860094 -42.47827148 207.13781738 C-42.50503463 184.35932637 -42.51556079 161.58092324 -42.50021017 138.80241871 C-42.49861744 136.37305007 -42.49704558 133.94368141 -42.49549484 131.51431274 C-42.49472346 130.31904589 -42.49395209 129.12377903 -42.49315733 127.89229196 C-42.48884189 119.47304418 -42.49612356 111.05385218 -42.50789261 102.63461304 C-42.52192181 92.37304665 -42.51810864 82.11167149 -42.49148889 71.85012698 C-42.47835654 66.61542281 -42.47318863 61.38103735 -42.48973465 56.1463356 C-42.50465895 51.35215941 -42.49640489 46.55859666 -42.46984689 41.76447594 C-42.46427247 40.03244765 -42.46707901 38.30036728 -42.47922583 36.56837261 C-42.5458071 26.28387018 -42.15842752 17.63141553 -35.08402312 9.50690556 C-24.95247408 -0.25411425 -13.24474329 -0.06910188 0 0 Z M-21.82641602 100.50793457 C-21.88829102 157.98980957 -21.95016602 215.47168457 -22.01391602 274.69543457 C-22.04122803 292.87016846 -22.06854004 311.04490234 -22.09667969 329.77038574 C-22.1067107 346.00986395 -22.1067107 346.00986395 -22.11274719 362.24934387 C-22.11555111 369.50332029 -22.12658221 376.75722784 -22.1431427 384.01118469 C-22.16220035 392.37128216 -22.17093286 400.73131328 -22.16675087 409.09143265 C-22.16493876 413.37061643 -22.1678689 417.64965182 -22.18406141 421.92880857 C-22.19860455 425.79547728 -22.19942285 429.66189197 -22.18911934 433.52857208 C-22.18784316 434.92904555 -22.19168277 436.32953462 -22.20106375 437.72997725 C-22.21307228 439.63402555 -22.20483506 441.53816952 -22.1955595 443.44223309 C-22.19669866 444.50051365 -22.19783782 445.55879421 -22.1990115 446.64914387 C-21.76182242 450.00353791 -20.88271267 451.83369327 -18.82641602 454.50793457 C-15.34809703 457.14385188 -11.38395757 456.78901582 -7.19822884 456.76520348 C-6.03408942 456.77046259 -6.03408942 456.77046259 -4.84643203 456.77582794 C-2.2303247 456.78517598 0.38556167 456.7802099 3.00167847 456.77536011 C4.89001495 456.77909465 6.77834989 456.78369538 8.66668236 456.78909075 C13.86799972 456.80136032 19.06925295 456.80105564 24.27058148 456.798702 C29.87532376 456.79829483 35.4800452 456.80932336 41.08477783 456.81881714 C52.06988256 456.83544955 63.05496582 456.84092769 74.04008208 456.84204189 C82.96633149 456.84299126 91.89257379 456.84709598 100.81882095 456.85344315 C121.99207743 456.86819306 143.16532877 456.88049223 164.33859062 456.87944603 C165.01592525 456.87941487 165.69325987 456.87938371 166.39111979 456.87935161 C169.82424828 456.87918539 173.25737676 456.87898731 176.69050525 456.8787822 C177.37235507 456.87874231 178.0542049 456.87870242 178.75671684 456.87866132 C180.13558356 456.87858044 181.51445028 456.87849685 182.89331699 456.87841053 C204.34955939 456.87718484 225.80573858 456.89220072 247.26196289 456.91955566 C271.35953134 456.95026534 295.4570474 456.9674635 319.55464089 456.96562922 C332.31703379 456.96496435 345.07935542 456.97049893 357.84173203 456.99198532 C368.70665064 457.01015955 379.57146568 457.01457541 390.43639289 457.00096647 C395.98241628 456.99441795 401.52824075 456.99438747 407.07424545 457.01167297 C412.14838177 457.0273255 417.22216014 457.02462046 422.29628731 457.00710471 C424.1347565 457.00401751 425.97325189 457.0077314 427.8116902 457.01882486 C430.30613508 457.03288333 432.7993135 457.02240985 435.29371452 457.00571251 C436.01159926 457.01564887 436.729484 457.02558523 437.46912283 457.03582269 C442.46131933 456.96491607 445.36466584 455.70384222 449.17358398 452.50793457 C450.23894585 449.31184896 450.29783623 447.04743644 450.29663181 443.68832874 C450.29862268 442.46626665 450.30061356 441.24420456 450.30266476 439.98511028 C450.29981251 438.62266712 450.29686712 437.26022415 450.2938385 435.89778137 C450.29427576 434.4591266 450.29515236 433.0204719 450.2964325 431.58181763 C450.29868241 427.61108437 450.29465258 423.64037792 450.28965671 419.66964807 C450.28530201 415.3285208 450.28675053 410.98739484 450.28747463 406.64626598 C450.28800715 398.21252566 450.28338151 389.77879595 450.2769733 381.34505836 C450.26978497 371.59348186 450.26897919 361.84191177 450.26818848 352.09033203 C450.26293402 326.33369786 450.24897296 300.57706606 450.23608398 274.82043457 C450.21545898 217.29730957 450.19483398 159.77418457 450.17358398 100.50793457 C294.41358398 100.50793457 138.65358398 100.50793457 -21.82641602 100.50793457 Z " fill="#67CCD1" transform="translate(41.826416015625,17.4920654296875)"/>
<path d="M0 0 C1.92366539 -0.00461234 3.84732726 -0.01096749 5.77098179 -0.01890898 C11.04231197 -0.03557954 16.31335182 -0.02736616 21.58468294 -0.0149641 C27.27529633 -0.00590669 32.96586011 -0.01988679 38.65646362 -0.03088379 C49.79853197 -0.04866615 60.94049251 -0.04483024 72.08256507 -0.03323323 C81.1383145 -0.02419809 90.19403373 -0.02297526 99.24978638 -0.02732849 C100.53886259 -0.02794142 101.8279388 -0.02855436 103.15607792 -0.02918586 C105.77484728 -0.03046477 108.39361663 -0.03176162 111.01238596 -0.03307623 C134.86618303 -0.04415611 158.71991886 -0.03266768 182.57370616 -0.01170584 C204.33977764 0.00727597 226.10575551 0.00557743 247.87182617 -0.0135498 C272.33791615 -0.03497796 296.80394602 -0.04338257 321.27004528 -0.03110075 C323.87915738 -0.02982656 326.48826948 -0.02856908 329.09738159 -0.02732849 C331.02295917 -0.02640284 331.02295917 -0.02640284 332.98743731 -0.02545848 C342.03184966 -0.02200542 351.07622878 -0.027833 360.12063599 -0.0372467 C371.14340795 -0.0484674 382.16606598 -0.04542503 393.18882489 -0.02412373 C398.81233697 -0.0136144 404.43565911 -0.00948969 410.05916977 -0.02272034 C415.20853713 -0.03465218 420.35753876 -0.02806829 425.50687301 -0.00681013 C427.36810885 -0.00234747 429.22937569 -0.00460275 431.09059155 -0.01431328 C443.69348701 -0.07501492 453.91299977 0.63218761 463.48217773 9.64074707 C469.05250426 15.78997589 470.29727569 21.6162978 470.30501175 29.72448349 C470.3080907 30.82187755 470.3080907 30.82187755 470.31123185 31.94144118 C470.31691055 34.40614764 470.31544353 36.87079838 470.31402588 39.33551025 C470.31660901 41.11517535 470.31962203 42.89483986 470.32302928 44.67450356 C470.33110856 49.57550405 470.33288937 54.47648989 470.33362675 59.37749624 C470.33547568 64.65915922 470.34302219 69.94081457 470.34976196 75.22247314 C470.36335222 86.77612293 470.36937103 98.32976926 470.37377262 109.88342571 C470.37653377 117.09513866 470.38077088 124.30685027 470.38527679 131.51856232 C470.39747017 151.47883393 470.40776948 171.43910447 470.41115189 191.39937973 C470.41137145 192.67723481 470.41159102 193.95508989 470.41181724 195.27166785 C470.41203552 196.55260931 470.41225379 197.83355077 470.41247869 199.15330863 C470.41292215 201.74905634 470.41336872 204.34480405 470.41381836 206.94055176 C470.41403979 208.22813685 470.41426122 209.51572194 470.41448936 210.84232476 C470.41843824 231.71062947 470.43589471 252.57889927 470.45917788 273.44719049 C470.48287981 294.86335217 470.4953532 316.27949632 470.4965198 337.69567132 C470.4974372 349.72370571 470.50320568 361.75169462 470.52133942 373.77971649 C470.53672474 384.02093643 470.54187012 394.26209685 470.53360131 404.50332615 C470.52968931 409.72957757 470.53065129 414.95570906 470.54465866 420.1819458 C470.5573644 424.96623514 470.55622933 429.750314 470.54406795 434.53460291 C470.54210518 436.26543723 470.54521605 437.99628628 470.55391231 439.72709987 C470.56499043 442.08099535 470.55752663 444.43414613 470.54552078 446.78802109 C470.54641641 448.7486822 470.54641641 448.7486822 470.54733014 450.74895263 C469.66951929 459.57760568 465.68910615 465.60796085 459.17358398 471.50793457 C452.79217412 475.70835625 446.98475084 476.65741729 439.43163109 476.64215565 C438.64322954 476.64450788 437.85482799 476.64686011 437.04253548 476.64928362 C434.38457495 476.6559729 431.72666331 476.65551542 429.06869507 476.65510559 C427.15021205 476.65840426 425.23172972 476.66212983 423.31324828 476.66624707 C418.02845737 476.67627482 412.74367783 476.67998511 407.45887876 476.68263638 C401.76408482 476.68653711 396.0692999 476.69611558 390.37451172 476.70484924 C376.61553793 476.72461979 362.85656339 476.73468044 349.09757894 476.74357703 C342.62060049 476.74795881 336.14362286 476.75332589 329.66664505 476.7585659 C308.13996965 476.77557847 286.61329555 476.79009812 265.08661461 476.79731464 C263.69444215 476.7977894 262.30226968 476.79826529 260.91009722 476.79874231 C259.87451115 476.79909687 259.87451115 476.79909687 258.81800415 476.7994586 C255.32015706 476.80065979 251.82230997 476.80187524 248.32446289 476.80310059 C247.63030533 476.80334074 246.93614777 476.80358089 246.22095514 476.80382831 C223.71571669 476.81172089 201.21053096 476.83515192 178.70531553 476.86765653 C154.91058821 476.90196085 131.11589817 476.9216652 107.3211447 476.92495888 C94.35070415 476.92712536 81.38034107 476.93589417 68.40992355 476.96142006 C57.36506398 476.98310605 46.3203007 476.99118778 35.27542226 476.98145328 C29.63978878 476.97690258 24.00435405 476.97883977 18.36874771 476.99821472 C13.2080577 477.01580378 8.04771208 477.0148831 2.88701864 476.99931743 C1.02155795 476.99693491 -0.84392632 477.00129822 -2.7093509 477.01314608 C-15.12573587 477.087112 -25.6858235 476.56345388 -35.08402312 467.50896358 C-42.78270028 458.66751549 -42.53907495 448.98128482 -42.46133423 437.8963623 C-42.46710062 436.10468728 -42.47504521 434.31301817 -42.48497045 432.52136135 C-42.50579589 427.6148159 -42.49554813 422.70875823 -42.48003936 417.80221128 C-42.46871219 412.50422623 -42.48619536 407.2063242 -42.49993896 401.90835571 C-42.52216125 391.53629489 -42.51737462 381.16441508 -42.50287576 370.79234719 C-42.49157958 362.3620685 -42.49005427 353.93184049 -42.49549484 345.5015564 C-42.49626101 344.30129175 -42.49702717 343.1010271 -42.49781656 341.86439079 C-42.4994152 339.42600543 -42.50103626 336.98762008 -42.50267951 334.54923475 C-42.51693406 311.68945939 -42.50054886 288.82978433 -42.47367768 265.97002542 C-42.4513392 246.35923919 -42.45521941 226.74860094 -42.47827148 207.13781738 C-42.50503463 184.35932637 -42.51556079 161.58092324 -42.50021017 138.80241871 C-42.49861744 136.37305007 -42.49704558 133.94368141 -42.49549484 131.51431274 C-42.49472346 130.31904589 -42.49395209 129.12377903 -42.49315733 127.89229196 C-42.48884189 119.47304418 -42.49612356 111.05385218 -42.50789261 102.63461304 C-42.52192181 92.37304665 -42.51810864 82.11167149 -42.49148889 71.85012698 C-42.47835654 66.61542281 -42.47318863 61.38103735 -42.48973465 56.1463356 C-42.50465895 51.35215941 -42.49640489 46.55859666 -42.46984689 41.76447594 C-42.46427247 40.03244765 -42.46707901 38.30036728 -42.47922583 36.56837261 C-42.5458071 26.28387018 -42.15842752 17.63141553 -35.08402312 9.50690556 C-24.95247408 -0.25411425 -13.24474329 -0.06910188 0 0 Z M-20.82641602 24.50793457 C-22.29784623 27.450795 -21.95464653 30.05917005 -21.95784378 33.34621143 C-21.95989641 34.06120321 -21.96194905 34.77619498 -21.96406388 35.51285318 C-21.96976406 37.93309031 -21.96827294 40.35327108 -21.96685791 42.77351379 C-21.96943982 44.51646767 -21.97245249 46.25942095 -21.97586131 48.0023734 C-21.98395504 52.81107031 -21.9857222 57.61975232 -21.98645878 62.42845523 C-21.98830522 67.60716395 -21.99585046 72.78586486 -22.00259399 77.96456909 C-22.01619458 89.29706854 -22.02220469 100.62956445 -22.02660465 111.9620707 C-22.02936411 119.03337635 -22.03360091 126.10468062 -22.03810883 133.17598534 C-22.05030365 152.74071956 -22.0606026 172.30545268 -22.06398392 191.87019062 C-22.06420348 193.12316213 -22.06442305 194.37613364 -22.06464927 195.66707398 C-22.06486755 196.92310348 -22.06508582 198.17913298 -22.06531072 199.47322398 C-22.06575419 202.01856697 -22.06620075 204.56390995 -22.06665039 207.10925293 C-22.06687182 208.37184042 -22.06709325 209.63442792 -22.06732139 210.93527564 C-22.07127084 231.4015766 -22.08872839 251.86784198 -22.11200991 272.33412919 C-22.13570034 293.32871846 -22.14818471 314.32328987 -22.14935184 335.31789273 C-22.15026989 347.11279466 -22.15605486 358.90765025 -22.17417145 370.70253944 C-22.1895413 380.74480193 -22.19471136 390.78700376 -22.18643335 400.82927576 C-22.18251579 405.95590438 -22.18351012 411.08241071 -22.19749069 416.20902443 C-22.21016357 420.89886656 -22.20909068 425.58849369 -22.19689998 430.27833524 C-22.19493145 431.97822061 -22.1980743 433.67812087 -22.20674434 435.37798528 C-22.21775975 437.68296536 -22.21040428 439.98717631 -22.19835281 442.29213428 C-22.1989499 443.57412514 -22.19954699 444.85611599 -22.20016217 446.17695504 C-21.79236057 449.81145072 -21.09043437 451.6574971 -18.82641602 454.50793457 C-15.34809703 457.14385188 -11.38395757 456.78901582 -7.19822884 456.76520348 C-6.03408942 456.77046259 -6.03408942 456.77046259 -4.84643203 456.77582794 C-2.2303247 456.78517598 0.38556167 456.7802099 3.00167847 456.77536011 C4.89001495 456.77909465 6.77834989 456.78369538 8.66668236 456.78909075 C13.86799972 456.80136032 19.06925295 456.80105564 24.27058148 456.798702 C29.87532376 456.79829483 35.4800452 456.80932336 41.08477783 456.81881714 C52.06988256 456.83544955 63.05496582 456.84092769 74.04008208 456.84204189 C82.96633149 456.84299126 91.89257379 456.84709598 100.81882095 456.85344315 C121.99207743 456.86819306 143.16532877 456.88049223 164.33859062 456.87944603 C165.01592525 456.87941487 165.69325987 456.87938371 166.39111979 456.87935161 C169.82424828 456.87918539 173.25737676 456.87898731 176.69050525 456.8787822 C177.37235507 456.87874231 178.0542049 456.87870242 178.75671684 456.87866132 C180.13558356 456.87858044 181.51445028 456.87849685 182.89331699 456.87841053 C204.34955939 456.87718484 225.80573858 456.89220072 247.26196289 456.91955566 C271.35953134 456.95026534 295.4570474 456.9674635 319.55464089 456.96562922 C332.31703379 456.96496435 345.07935542 456.97049893 357.84173203 456.99198532 C368.70665064 457.01015955 379.57146568 457.01457541 390.43639289 457.00096647 C395.98241628 456.99441795 401.52824075 456.99438747 407.07424545 457.01167297 C412.14838177 457.0273255 417.22216014 457.02462046 422.29628731 457.00710471 C424.1347565 457.00401751 425.97325189 457.0077314 427.8116902 457.01882486 C430.30613508 457.03288333 432.7993135 457.02240985 435.29371452 457.00571251 C436.01159926 457.01564887 436.729484 457.02558523 437.46912283 457.03582269 C442.46131933 456.96491607 445.36466584 455.70384222 449.17358398 452.50793457 C450.34268412 449.00063415 450.30386139 446.24984248 450.31059837 442.54660988 C450.3132502 441.83046426 450.31590203 441.11431864 450.31863421 440.37647164 C450.32634048 437.95833497 450.32688689 435.54024897 450.32748413 433.12210083 C450.33149785 431.37828357 450.33593593 429.63446725 450.34076369 427.89065206 C450.35274464 423.08421813 450.35838113 418.27779423 450.36294484 413.47134829 C450.36889499 408.29333619 450.38050612 403.11533614 450.39123535 397.93733215 C450.41576999 385.42677632 450.43038659 372.91621649 450.44329542 360.405644 C450.4470061 356.874134 450.45097942 353.34262439 450.45504808 349.81111479 C450.48027963 327.89526288 450.50233933 305.97941037 450.51477623 284.06354713 C450.51770606 278.98609032 450.52066771 273.90863352 450.52368164 268.83117676 C450.52480072 266.93814377 450.52480072 266.93814377 450.5259424 265.00686769 C450.53860542 244.54707084 450.57184091 224.08736071 450.61348347 203.62760444 C450.65585653 182.63750439 450.67946577 161.6474488 450.68469679 140.65730608 C450.6881158 128.86573299 450.69992888 117.07429551 450.73279953 105.28276443 C450.76073741 95.24416051 450.77182689 85.20571997 450.76060407 75.16708018 C450.75540167 70.042385 450.75840655 64.91803234 450.78306961 59.79338646 C450.80544405 55.10531272 450.8049148 50.41782989 450.78586574 45.72974662 C450.7830491 44.03055807 450.78875588 42.33133044 450.80367868 40.63220508 C450.82268642 38.32772412 450.81106588 36.02537177 450.79161644 33.72094154 C450.79297297 32.43949277 450.7943295 31.15804399 450.79572713 29.83776343 C450.01027811 25.63389036 448.43872186 24.17381048 445.17358398 21.50793457 C442.16622052 20.00425284 439.07146752 20.36700733 435.77308178 20.37371349 C434.99730855 20.37136126 434.22153532 20.36900903 433.42225382 20.36658552 C430.79525729 20.35987264 428.16830995 20.36035443 425.54130554 20.36076355 C423.64985876 20.35746635 421.75841267 20.3537411 419.8669675 20.34962207 C414.64781583 20.33957765 409.42867566 20.33588137 404.20951569 20.33323276 C398.58908415 20.32933697 392.96866179 20.3197582 387.34823608 20.3110199 C373.76494761 20.29123576 360.18165836 20.28118718 346.59835908 20.27229211 C340.20789921 20.26791272 333.81744018 20.26254504 327.42698097 20.25730324 C306.19461435 20.24028963 284.96224869 20.22576907 263.72987652 20.2185545 C262.3563356 20.21807974 260.98279467 20.21760385 259.60925375 20.21712684 C258.92808806 20.21689046 258.24692237 20.21665408 257.5451153 20.21641054 C254.09387894 20.21520932 250.64264259 20.21399388 247.19140625 20.21276855 C246.50649302 20.2125284 245.82157979 20.21228825 245.11591162 20.21204083 C222.90187053 20.20414525 200.6878828 20.18070843 178.47386502 20.14821261 C154.99884276 20.11393469 131.52386324 20.09420643 108.04881221 20.09091026 C95.24785169 20.08874145 82.44696958 20.07993862 69.64603233 20.05444908 C58.7473722 20.03279801 47.84880951 20.02466404 36.95013031 20.03441586 C31.38601366 20.03897672 25.82209831 20.03697101 20.25800896 20.01765442 C15.16843177 20.00013717 10.07920443 20.00092679 4.98962412 20.01655171 C3.14438087 20.01894527 1.29911411 20.01451464 -0.54609302 20.00272306 C-3.04728934 19.98772431 -5.54722662 19.99719219 -8.04839039 20.01294994 C-9.13242208 19.99761663 -9.13242208 19.99761663 -10.2383534 19.98197356 C-15.02951468 20.04821953 -17.46103682 21.11388338 -20.82641602 24.50793457 Z " fill="#052A74" transform="translate(41.826416015625,17.4920654296875)"/>
<path d="M0 0 C155.76 0 311.52 0 472 0 C472 0.33 472 0.66 472 1 C348.58 1 225.16 1 98 1 C92.47532115 26.83159972 92.47532115 26.83159972 89 53 C87.81921875 53.43570313 86.6384375 53.87140625 85.421875 54.3203125 C83.86419335 54.92086446 82.30692282 55.52248353 80.75 56.125 C79.97269531 56.40859375 79.19539063 56.6921875 78.39453125 56.984375 C77.26337891 57.42910156 77.26337891 57.42910156 76.109375 57.8828125 C75.41811523 58.14465332 74.72685547 58.40649414 74.01464844 58.67626953 C70.98614083 60.66615904 69.74281572 62.8224857 68 66 C67.44007826 68.97991517 67.45925463 71.89387721 67.49206543 74.91931152 C67.48270549 76.24984755 67.48270549 76.24984755 67.47315645 77.60726309 C67.45722652 80.5737338 67.46983081 83.53938284 67.48242188 86.50585938 C67.47700077 88.634918 67.46987817 90.76397287 67.46118164 92.89302063 C67.44294417 98.67190305 67.45001772 104.45049986 67.46269798 110.22938728 C67.47282336 116.27642717 67.46343358 122.32344256 67.45715332 128.3704834 C67.44987559 138.52551668 67.45946799 148.6804336 67.47851562 158.83544922 C67.50028451 170.57687946 67.49323324 182.31803188 67.47121 194.05945539 C67.45305966 204.13944105 67.45049592 214.21934305 67.46096468 224.29933977 C67.46720158 230.32010483 67.46802971 236.34073929 67.45481873 242.36149597 C67.44326629 248.02179664 67.45127525 253.68173901 67.47439575 259.34200096 C67.47968603 261.41967867 67.47816365 263.49738653 67.46934509 265.57505226 C67.45841885 268.41067177 67.47211817 271.24514224 67.49206543 274.08068848 C67.4786811 275.3148375 67.4786811 275.3148375 67.46502638 276.57391882 C67.53669727 281.82431267 68.51827048 284.833338 72 289 C75.60983285 290.80491643 79.22609312 289.90675078 83 289 C85.42831972 287.98094791 87.8053038 286.92876315 90.1875 285.8125 C96.87900362 282.69729305 103.63343696 280.4523625 110.75 278.5 C112.17928833 278.09938354 112.17928833 278.09938354 113.63745117 277.69067383 C114.53568604 277.45243896 115.4339209 277.2142041 116.359375 276.96875 C117.55771973 276.65067383 117.55771973 276.65067383 118.78027344 276.32617188 C121.17058537 275.97493378 122.72187919 276.25320311 125 277 C124.34 277.33 123.68 277.66 123 278 C132.68803049 298.85834002 142.88467418 319.89797327 156.46354008 338.5749712 C158 341 158 341 159.25073147 344.20367718 C161.25441393 348.39834272 163.02621966 351.47250103 167 354 C175.4029284 356.43897636 184.56815728 355.73182234 193.23840153 355.59339607 C196.88873252 355.54941534 200.53852878 355.5808521 204.18894958 355.60293579 C210.5065363 355.63092329 216.82253918 355.61157336 223.13995552 355.55968666 C232.27345903 355.48473967 241.4058819 355.48177867 250.53962993 355.49615004 C265.3594905 355.51752387 280.17861722 355.48102028 294.99829102 355.40795898 C309.39059875 355.33712892 323.78256223 355.29365666 338.17504883 355.28686523 C339.50668908 355.28622262 339.50668908 355.28622262 340.86523116 355.28556702 C345.3190486 355.28358613 349.77286602 355.28214191 354.22668374 355.28096449 C391.15149846 355.27050913 428.07557348 355.16605735 465 355 C465 355.33 465 355.66 465 356 C406.75565482 356.0915008 348.5113148 356.16201899 290.26691218 356.20426132 C283.39490097 356.20925073 276.5228899 356.21443694 269.65087891 356.21972656 C268.96702551 356.2202496 268.28317211 356.22077263 267.57859588 356.22131152 C245.40668403 356.23836167 223.23481292 356.26841045 201.06292575 356.30518888 C177.63582553 356.34397893 154.20875931 356.36798127 130.78162444 356.37635398 C116.74429428 356.38184993 102.70708106 356.39922545 88.66978689 356.43166587 C79.05159281 356.45276509 69.43345943 356.45921047 59.81524388 356.45400551 C54.26113948 356.45143658 48.7072398 356.45545004 43.15317154 356.4768219 C38.07148709 356.4962338 32.99014576 356.49730486 27.90844579 356.48359558 C26.06715995 356.48190028 24.22585302 356.48701974 22.38460891 356.49953273 C19.88633105 356.51552777 17.38930046 356.50697013 14.89104271 356.49219131 C14.17201458 356.50269937 13.45298645 356.51320742 12.71216959 356.5240339 C7.71554702 356.45699472 4.8117712 355.19968883 1 352 C-0.06536187 348.80391439 -0.12425224 346.53950187 -0.12304783 343.18039417 C-0.1250387 341.95833208 -0.12702957 340.73626999 -0.12908077 339.47717571 C-0.12622853 338.11473255 -0.12328314 336.75228958 -0.12025452 335.3898468 C-0.12069177 333.95119203 -0.12156838 332.51253733 -0.12284851 331.07388306 C-0.12509842 327.1031498 -0.12106859 323.13244335 -0.11607273 319.1617135 C-0.11171803 314.82058623 -0.11316655 310.47946027 -0.11389065 306.13833141 C-0.11442316 297.70459109 -0.10979753 289.27086138 -0.10338932 280.83712379 C-0.09620098 271.08554729 -0.09539521 261.3339772 -0.09460449 251.58239746 C-0.08935004 225.82576329 -0.07538898 200.06913149 -0.0625 174.3125 C-0.041875 116.789375 -0.02125 59.26625 0 0 Z " fill="#D1DBFC" transform="translate(20,118)"/>
<path d="M0 0 C0 63.36 0 126.72 0 192 C-7.92 189.69 -15.84 187.38 -24 185 C-29.37102411 183.86306789 -34.59559883 182.83234812 -40 182 C-41.08539063 181.79632813 -42.17078125 181.59265625 -43.2890625 181.3828125 C-75.65864712 175.95067531 -108.27224843 181.75741614 -139 192 C-139 128.64 -139 65.28 -139 0 C-91.79835813 -17.39007858 -47.15285725 -18.8611429 0 0 Z " fill="#FDFDFE" transform="translate(246,192)"/>
<path d="M0 0 C1.14210938 0.15984375 2.28421875 0.3196875 3.4609375 0.484375 C16.6888949 2.68408028 27.98765845 7.49572792 41 12 C41 62.16 41 112.32 41 164 C30.88113528 161.7513634 30.88113528 161.7513634 26.51538086 160.21240234 C25.54084457 159.87220062 24.56630829 159.5319989 23.5622406 159.18148804 C22.54009964 158.81995636 21.51795868 158.45842468 20.46484375 158.0859375 C18.25209983 157.31728589 16.03920459 156.54906977 13.82617188 155.78125 C10.37275428 154.57706707 6.92078562 153.3691087 3.47143555 152.15332031 C0.1187881 150.9740426 -3.23892238 149.81024699 -6.59765625 148.6484375 C-7.62182144 148.28285736 -8.64598663 147.91727722 -9.70118713 147.5406189 C-16.48683526 145.20816337 -22.21350438 143.58934477 -29.1875 146.1875 C-33.93074831 149.24426002 -37.5711117 152.41434574 -39 158 C-39.66270596 165.59019223 -37.42049048 171.86118856 -35 179 C-34.6184375 180.15628906 -34.236875 181.31257812 -33.84375 182.50390625 C-32.90632509 185.33961661 -31.95820457 188.17125779 -31 191 C-31.61294922 191.04487549 -32.22589844 191.08975098 -32.85742188 191.13598633 C-51.33076281 192.5228686 -68.64707095 195.40093505 -86.48803711 200.36157227 C-90.30354907 201.33130341 -94.15693242 202.14598498 -98 203 C-98 139.97 -98 76.94 -98 12 C-80.39570089 4.95828036 -80.39570089 4.95828036 -71.1875 2.75 C-70.15689453 2.50040527 -69.12628906 2.25081055 -68.06445312 1.99365234 C-45.77544441 -3.21887654 -22.58973032 -3.5885926 0 0 Z " fill="#FDFDFE" transform="translate(364,180)"/>
<path d="M0 0 C1.10065132 0.00394052 1.10065132 0.00394052 2.22353801 0.00796065 C3.38771406 0.00622988 3.38771406 0.00622988 4.57540882 0.00446415 C7.20955562 0.00179023 9.84364285 0.00632597 12.47778663 0.01075396 C14.3719332 0.01031842 16.26607971 0.00944382 18.1602259 0.00816479 C23.39129654 0.00591652 28.62234692 0.00994562 33.85341498 0.01494285 C39.48467019 0.01924244 45.11592416 0.01780128 50.74718055 0.01704058 C60.51238172 0.01651503 70.27757623 0.01966505 80.04277572 0.02527842 C94.16179235 0.03338925 108.28080575 0.03600821 122.39982446 0.03726641 C145.30438964 0.03945759 168.20895047 0.04611089 191.11351356 0.05556902 C213.36937275 0.0647487 235.62523098 0.07183464 257.88109168 0.07607684 C258.90955189 0.07627412 258.90955189 0.07627412 259.95878907 0.0764754 C266.84407001 0.07779388 273.72935095 0.0790697 280.61463191 0.08031426 C338.3871294 0.09076098 396.15962312 0.10841242 453.93211707 0.13100848 C453.93211707 0.46100848 453.93211707 0.79100848 453.93211707 1.13100848 C342.06211707 1.13100848 230.19211707 1.13100848 114.93211707 1.13100848 C114.27211707 3.11100848 113.61211707 5.09100848 112.93211707 7.13100848 C112.20454159 8.8800894 111.45388111 10.61972077 110.68211707 12.34975848 C101.57201394 33.10547354 93.51866319 54.42169016 88.55321082 76.58803973 C87.93211707 79.13100848 87.93211707 79.13100848 86.93211707 80.13100848 C83.88809286 80.22631828 80.86679999 80.25652486 77.82249793 80.24453387 C76.86650199 80.24467989 75.91050605 80.24482592 74.92554054 80.24497637 C71.74932462 80.24427683 68.57316656 80.2364825 65.39696082 80.22866473 C63.20120615 80.22680069 61.00545105 80.22537672 58.80969581 80.22437701 C53.01791074 80.22055066 47.22615057 80.21071939 41.43437538 80.19967303 C35.52932916 80.18946141 29.62427894 80.18487992 23.71922645 80.1798366 C12.12351236 80.16909722 0.52781678 80.15201941 -11.06788293 80.13100848 C-11.1837888 70.56906263 -11.27260391 61.00735899 -11.32694378 51.44486365 C-11.35302583 47.00446206 -11.38839775 42.56454145 -11.44508019 38.12441668 C-11.49945072 33.83851752 -11.52931394 29.55308065 -11.54226914 25.2668632 C-11.55150008 23.63255379 -11.56952647 21.99826938 -11.59653321 20.36415705 C-11.63289308 18.07275225 -11.63782575 15.78325155 -11.63550988 13.49160418 C-11.64661294 12.18810519 -11.65771599 10.88460619 -11.66915551 9.54160723 C-10.91808718 5.28132197 -9.33910993 3.85264264 -6.06788293 1.13100848 C-4.37323075 -0.56364369 -2.26133906 0.00769767 0 0 Z " fill="#27A0CA" transform="translate(31.067882925271988,37.868991523981094)"/>
<path d="M0 0 C7.13232841 2.08344337 14.17968813 4.36468237 21.2109375 6.765625 C22.2591568 7.12211121 23.3073761 7.47859741 24.38735962 7.84588623 C26.59788519 8.598066 28.80811636 9.35111146 31.01806641 10.10498047 C34.33036772 11.23477634 37.64361223 12.36176813 40.95703125 13.48828125 C53.99498364 17.92564436 67.00982085 22.42468181 80 27 C80 27.66 80 28.32 80 29 C78.96069336 29.34256836 77.92138672 29.68513672 76.85058594 30.03808594 C72.98501585 31.31574237 69.12485686 32.60911341 65.26611328 33.90722656 C63.59729475 34.46619819 61.92705096 35.0209337 60.25537109 35.57128906 C57.84863611 36.36446645 55.44748801 37.17288517 53.046875 37.984375 C52.30193787 38.22621521 51.55700073 38.46805542 50.78948975 38.71722412 C46.59989025 40.15247067 43.63131281 41.38689956 41 45 C39.85791832 47.69210089 38.88349874 50.2773163 37.984375 53.046875 C37.72368225 53.81807678 37.4629895 54.58927856 37.19439697 55.3838501 C36.36843243 57.83565475 35.55904355 60.2925663 34.75 62.75 C34.19119095 64.41833316 33.63130676 66.08630662 33.0703125 67.75390625 C31.70105421 71.83187639 30.34662999 75.91450451 29 80 C28.34 80 27.68 80 27 80 C26.77973145 79.34728119 26.55946289 78.69456238 26.33251953 78.02206421 C24.21844182 71.75897313 22.10182981 65.49674441 19.98262024 59.2353878 C18.89416046 56.01918317 17.80684131 52.80260419 16.72119141 49.58544922 C12.07980072 35.83337972 7.40941983 22.10307514 2.33569336 8.50326538 C2.02639893 7.66897003 1.71710449 6.83467468 1.3984375 5.97509766 C0.99117432 4.8887352 0.99117432 4.8887352 0.57568359 3.78042603 C0 2 0 2 0 0 Z " fill="#FDFDFE" transform="translate(345,345)"/>
<path d="M0 0 C1.26481201 -0.01253311 2.52962402 -0.02506622 3.83276367 -0.03797913 C5.20492587 -0.02571038 6.57707819 -0.0122903 7.94921875 0.00219727 C9.36499209 0.001368 10.78076532 -0.00109358 12.1965332 -0.00511169 C15.15898737 -0.0079656 18.12068377 0.00668972 21.08300781 0.03417969 C24.87291214 0.06826339 28.6614621 0.0622413 32.45143127 0.04351711 C35.37352713 0.03292867 38.29530994 0.04190134 41.21737671 0.05690193 C42.61436024 0.06207078 44.01137665 0.06161769 45.40835571 0.05535698 C47.36342616 0.04988362 49.31851262 0.07317922 51.2734375 0.09765625 C52.93959106 0.10695412 52.93959106 0.10695412 54.6394043 0.11643982 C58.31001827 0.74671462 59.98410796 2.06810846 62.63671875 4.63110352 C64.41236686 8.18239974 64.09266861 12.13890398 62.94921875 15.88110352 C61.14757322 18.28329756 59.31476962 19.27566665 56.63671875 20.63110352 C53.76002502 21.01878357 53.76002502 21.01878357 50.56469727 21.03515625 C49.3631752 21.04784042 48.16165314 21.0605246 46.92372131 21.07359314 C45.63404953 21.0706575 44.34437775 21.06772186 43.015625 21.06469727 C41.66950722 21.06926242 40.32339176 21.07456899 38.97727966 21.08058167 C36.16045647 21.08950001 33.34391698 21.0871047 30.52709961 21.07714844 C26.92792396 21.06566279 23.32973005 21.08586883 19.73068333 21.11506557 C16.9518569 21.13346528 14.1732641 21.1331277 11.39439201 21.12742805 C9.42578333 21.12720132 7.4571965 21.14406531 5.48866272 21.16123962 C-5.60378688 21.07486131 -5.60378688 21.07486131 -10.36328125 16.63110352 C-12.47185578 13.97246607 -12.36351739 12.64409144 -12.30078125 9.19360352 C-10.53020176 2.46540145 -6.7789264 0.00586955 0 0 Z " fill="#94B3F4" transform="translate(309.36328125,220.368896484375)"/>
<path d="M0 0 C1.26496307 -0.0127597 2.52992615 -0.02551941 3.83322144 -0.03866577 C5.21579841 -0.04172341 6.59837744 -0.04395118 7.98095703 -0.04541016 C9.39958837 -0.05183783 10.81821837 -0.05856617 12.23684692 -0.06558228 C15.2109891 -0.07755783 18.1850151 -0.08126287 21.15917969 -0.08007812 C24.96471386 -0.07987501 28.76950059 -0.10716683 32.57485771 -0.14162254 C35.50545654 -0.1638947 38.43587565 -0.16791558 41.36655045 -0.16685867 C42.7691518 -0.16921457 44.17175812 -0.17803759 45.57427597 -0.19352341 C47.53900237 -0.21318399 49.50394825 -0.20482264 51.46875 -0.1953125 C52.58555145 -0.19816254 53.70235291 -0.20101257 54.85299683 -0.20394897 C58.54445601 0.40232035 60.20307946 1.7137077 62.86376953 4.29052734 C64.60662536 7.77623901 63.72735986 11.58565892 62.86376953 15.29052734 C60.61787628 18.28505168 59.41507586 19.10675857 55.86376953 20.29052734 C53.91769902 20.40413871 51.96803907 20.45972477 50.01879883 20.48339844 C48.8171257 20.49946136 47.61545258 20.51552429 46.37736511 20.53207397 C40.88658873 20.57652406 35.39594282 20.61801786 29.9050293 20.640625 C27.00757248 20.65396085 24.11082053 20.68180923 21.21362305 20.72265625 C17.70875348 20.77206394 14.20452276 20.7967553 10.69931984 20.80385208 C8.72173493 20.81379517 6.74432002 20.84801771 4.76701355 20.88265991 C-5.24708768 20.85909468 -5.24708768 20.85909468 -8.94335938 17.88671875 C-11.59740944 14.74452677 -12.095126 13.18398836 -12.31201172 9.22021484 C-12.04461976 6.28484538 -10.98890436 4.54020278 -9.13623047 2.29052734 C-5.62269444 -0.05183001 -4.15971638 0.02843589 0 0 Z " fill="#94B3F4" transform="translate(149.13623046875,220.70947265625)"/>
<path d="M0 0 C0.89110474 -0.00478363 1.78220947 -0.00956726 2.70031738 -0.01449585 C4.57968924 -0.01789022 6.4591205 -0.00872012 8.33837891 0.01220703 C11.21000198 0.03898094 14.07771679 0.01244539 16.94921875 -0.01953125 C18.77865443 -0.01622707 20.60808769 -0.00982066 22.4375 0 C23.29283325 -0.01012115 24.1481665 -0.02024231 25.02941895 -0.03067017 C29.43160785 0.05558998 31.18966093 0.24635165 34.75732422 3.06298828 C37.34095721 6.4891802 37.44007019 8.35805894 37.21875 12.5078125 C36.41875747 15.95778028 34.46282005 17.57334246 31.71875 19.6640625 C28.54829519 21.24928991 25.12431153 20.86935957 21.640625 20.90234375 C20.83643127 20.9104155 20.03223755 20.91848724 19.20367432 20.92680359 C17.4989233 20.94064548 15.79414455 20.95136717 14.08935547 20.95922852 C11.49262256 20.9764046 8.89717524 21.02028334 6.30078125 21.06445312 C4.64323852 21.07458355 2.98568497 21.08309856 1.328125 21.08984375 C0.55603699 21.10735184 -0.21605103 21.12485992 -1.01153564 21.14289856 C-6.22490675 21.12211519 -9.11937272 20.06738867 -13.28125 16.6640625 C-15.38982453 14.00542505 -15.28148614 12.67705043 -15.21875 9.2265625 C-12.98864304 0.75215604 -7.72668989 -0.09142989 0 0 Z " fill="#95B3F4" transform="translate(152.28125,266.3359375)"/>
<path d="M0 0 C0.87315353 -0.00807175 1.74630707 -0.01614349 2.6459198 -0.02445984 C4.49610405 -0.03830239 6.34631387 -0.04902378 8.1965332 -0.05688477 C11.02149072 -0.07408795 13.84527496 -0.11797041 16.66992188 -0.16210938 C18.46743931 -0.17223722 20.2649667 -0.18075304 22.0625 -0.1875 C22.90537064 -0.20500809 23.74824127 -0.22251617 24.61665344 -0.24055481 C28.68775361 -0.2255544 30.71808951 -0.08536824 34.2409668 2.13989258 C36.78363263 4.82172015 37.17692243 5.77421316 37.60546875 9.48828125 C37.11119579 14.43101083 35.69218574 15.77656426 32.23046875 19.23828125 C27.29332198 21.70685463 19.66559649 20.55116363 14.17382812 20.58837891 C12.38528409 20.60491548 10.59680552 20.63217537 8.80859375 20.67041016 C6.22491302 20.72535159 3.64278103 20.74707968 1.05859375 20.76171875 C0.26463196 20.78438812 -0.52932983 20.8070575 -1.34735107 20.83041382 C-5.46343533 20.814853 -8.00334419 20.46474595 -11.25878906 17.83056641 C-14.20833465 14.78522655 -14.68694176 14.1137299 -15.08203125 9.92578125 C-14.72077183 5.66292014 -13.74961071 4.21836071 -10.76953125 1.23828125 C-7.42936142 -0.43180366 -3.67469975 0.03197476 0 0 Z " fill="#94B3F4" transform="translate(335.76953125,266.76171875)"/>
<path d="M0 0 C2.8100346 1.79363911 4.50940468 3.01880935 6 6 C6.12150428 10.49565838 5.80266747 13.9715823 3 17.5625 C-1.10346073 19.5287416 -4.5305611 19.79363868 -9 19 C-11.89115314 17.33758695 -12.69207311 16.08584747 -13.59375 12.90625 C-14.31784262 8.7287926 -14.42885043 6.7098214 -12.1875 3 C-8.4620862 -0.40609262 -4.91281441 -0.70586414 0 0 Z " fill="#FBFDFD" transform="translate(462,63)"/>
<path d="M0 0 C2.8100346 1.79363911 4.50940468 3.01880935 6 6 C6.50761671 10.39934481 6.25800237 12.54225386 4.0625 16.4375 C0.48106205 19.43421338 -1.29669582 19.84907564 -5.84375 19.515625 C-9.46739079 18.6491022 -10.93805301 17.02848464 -13 14 C-14.0625 10.5625 -14.0625 10.5625 -14 7 C-10.50783138 0.4973412 -7.3180641 -1.05144599 0 0 Z " fill="#FCFEFE" transform="translate(419,63)"/>
<path d="M0 0 C3.9295493 0.92685276 5.41241975 2.29808529 8.00390625 5.47265625 C8.80273521 8.65073116 8.75254633 11.28805653 8.00390625 14.47265625 C6.06640625 17.53515625 6.06640625 17.53515625 3.00390625 19.47265625 C-1.74667698 20.51211479 -4.93750882 20.14237325 -9.05859375 17.53515625 C-11.66285898 13.41873702 -12.04313378 10.21866555 -10.99609375 5.47265625 C-8.10250338 1.041846 -5.38309693 -0.3983696 0 0 Z " fill="#FCFEFE" transform="translate(373.99609375,62.52734375)"/>
</svg>
