<svg xmlns="http://www.w3.org/2000/svg" xmlns:xlink="http://www.w3.org/1999/xlink" version="1.1" id="Layer_1" x="0px" y="0px" style="enable-;background-color:transparent;" xml:space="preserve" viewBox="0 104.7 1011.11 195.84">
<g>
	<rect x="0" style="fill:none;" width="1011.112" height="400" fill="none"/>
</g>
<g>
	<path d="M326.47,137.12c3.684-0.375,7.451,0.49,10.415,2.709c2.597,1.945,5.051,5.137,5.832,10.366   c1.877,12.549-2.686,15.896,4.345,20.773c7.031,4.877,11.137,2.093,15.366,13.837c4.229,11.744-3.085,27.165-17.45,23.662   c-14.365-3.503-49.152-13.903-49.152-13.903l-0.369-51.792l17.641-4.292L326.47,137.12z"/>
</g>
<g>
	<path style="fill:#6876AA;" d="M290.574,183.186c0,0-15.706,2.246-25.874,20.733c-10.168,18.486-18.707,69.458-17.149,71.067   c1.558,1.61,35.477,6.439,63.597,6.439c28.12,0,36.933-1.073,39.644-2.683c2.712-1.61,2.013-88.632-13.558-95.556   C321.663,176.262,307.284,177.65,290.574,183.186z"/>
</g>
<g>
	<path style="fill:#F7B369;" d="M286.668,184.01c0,0-24.675,38.683-29.549,63.714c-4.874,25.031-5.821,42.749-5.821,42.749   l89.658,0.556l1.605-68.1l-9.462-40.336l-26.147-3.548L286.668,184.01z"/>
</g>
<g>
	<path style="fill:#6876AA;" d="M286.668,184.01c0,0-12.585,46.572-15.243,62.842c-2.658,16.269-3.207,31.818-3.207,31.818   l-16.451-2.457l6.282-38.187l22.453-48.861L286.668,184.01z"/>
</g>
<g>
	<path d="M280.634,146.491c0,0-6.683-11.45-6.023-16.292c1.629-11.939,18.629-19.828,35.267-13.781   c16.639,6.047,19.559,26.967,16.719,35.976c-7.314,23.198-27.507,14.592-27.507,14.592S267.534,160.32,280.634,146.491z"/>
</g>
<g>
	<g>
		<g>
			<g>
				<path style="fill:#F48462;" d="M285.633,171.561l0.023,0.435l0.744,8.188l0.557,6.421c0,0-0.481,1.521,6.986,0.691      c10.005-1.151,13.042-5.612,13.042-5.612l-0.267-15.1l-3.016,0.72L285.633,171.561z"/>
			</g>
		</g>
	</g>
</g>
<g>
	<g>
		<g>
			<g>
				<path d="M285.656,171.996l0.744,8.188c4.849-0.817,13.629-3.337,16.861-11.174c0.247-0.636,0.404-1.205,0.441-1.675      l-18.022,4.535L285.656,171.996z"/>
			</g>
		</g>
	</g>
</g>
<g>
	<g>
		<g>
			<g>
				<path style="fill:#F48462;" d="M280.666,132.875c0,0-8.35,21.792-4.434,33.639c3.916,11.847,14.763,9.454,21.199,6.833      c6.435-2.621,9.287-6.773,9.287-6.773s6.207,1.791,10.033-4.081c3.826-5.871,1.009-12.281-2.55-13.616      c-3.558-1.335-7.592,1.376-7.592,1.376l2.966-6.358C309.575,143.894,294.439,112.974,280.666,132.875z"/>
			</g>
		</g>
	</g>
</g>
<g>
	<path style="fill:#6876AA;" d="M286.668,184.01c0,0-22.22,0.881-40.832,17.861c-18.611,16.98-45.587,58.529-34.714,73.307   c15.97,21.705,50.335,15.069,50.335,15.069l1.591-35.318l9.257-51.263L286.668,184.01z"/>
</g>
<g>
	<path d="M282.866,159.943c-0.265,0-0.514-0.163-0.611-0.426c-1.648-4.478,1.316-9.28,1.443-9.482   c0.191-0.305,0.591-0.396,0.897-0.205c0.304,0.191,0.397,0.592,0.206,0.897c-0.028,0.044-2.75,4.469-1.325,8.34   c0.124,0.337-0.049,0.712-0.386,0.836C283.017,159.93,282.941,159.943,282.866,159.943z"/>
</g>
<g>
	<path d="M308.008,160.19c-0.148,0-0.298-0.051-0.421-0.155c-0.274-0.232-0.308-0.643-0.075-0.917l5.477-6.453   c0.232-0.273,0.643-0.308,0.918-0.075c0.274,0.232,0.308,0.643,0.075,0.917l-5.477,6.453   C308.377,160.112,308.193,160.19,308.008,160.19z"/>
</g>
<g>
	<path d="M314.064,158.219c-0.021,0-0.043-0.001-0.064-0.003l-4.044-0.396c-0.358-0.035-0.619-0.354-0.585-0.711   c0.035-0.358,0.359-0.624,0.711-0.585l4.044,0.396c0.358,0.035,0.619,0.354,0.584,0.711   C314.677,157.968,314.394,158.219,314.064,158.219z"/>
</g>
<g>
	<path d="M289.784,166.16c-2.074,0-3.804-1.563-3.898-1.649c-0.165-0.152-0.241-0.378-0.199-0.599   c0.041-0.221,0.193-0.404,0.402-0.486l8.203-3.215c0.225-0.088,0.481-0.043,0.664,0.114c0.183,0.159,0.263,0.406,0.207,0.641   c-0.03,0.129-0.774,3.168-3.431,4.677C291.075,166.016,290.413,166.16,289.784,166.16z M287.682,164.2   c0.859,0.5,2.193,1.001,3.407,0.311c1.157-0.657,1.879-1.71,2.301-2.548L287.682,164.2z"/>
</g>
<g>
	<path d="M295.427,143.644c-0.224,0-0.442-0.116-0.563-0.323c-1.08-1.851-3.664-1.186-3.773-1.158   c-0.345,0.093-0.704-0.113-0.797-0.46c-0.093-0.346,0.11-0.703,0.457-0.797c0.148-0.042,3.653-0.958,5.239,1.758   c0.181,0.311,0.076,0.709-0.235,0.891C295.652,143.615,295.539,143.644,295.427,143.644z"/>
</g>
<g>
	<path d="M278.848,142.052c-0.169,0-0.338-0.065-0.465-0.195c-0.251-0.257-0.248-0.668,0.008-0.919   c0.069-0.068,1.703-1.656,3.565-1.536c0.909,0.064,1.69,0.517,2.324,1.345c0.218,0.286,0.164,0.694-0.122,0.913   c-0.286,0.219-0.694,0.164-0.913-0.122c-0.401-0.525-0.852-0.799-1.377-0.837c-1.277-0.101-2.552,1.153-2.565,1.165   C279.176,141.991,279.012,142.052,278.848,142.052z"/>
</g>
<g>
	<path d="M280.26,151.142c-0.021,0-0.041-0.001-0.062-0.003c-0.358-0.033-0.621-0.351-0.587-0.708l0.348-3.716l-1.422-1.582   c-0.24-0.267-0.219-0.679,0.049-0.919c0.266-0.239,0.679-0.219,0.919,0.049l1.613,1.794c0.121,0.135,0.181,0.315,0.164,0.496   l-0.375,3.999C280.876,150.889,280.592,151.142,280.26,151.142z"/>
</g>
<g>
	<path d="M292.122,151.467c-0.407-0.028-0.676-0.341-0.65-0.699l0.274-3.684l-2.093-1.854c-0.269-0.238-0.294-0.65-0.056-0.919   c0.239-0.27,0.65-0.294,0.919-0.056l2.335,2.068c0.152,0.135,0.232,0.333,0.217,0.536l-0.298,4.006   C292.745,151.206,292.46,151.467,292.122,151.467z"/>
</g>
<g>
	<path d="M317.855,129.821c0,0-2.282-25.619,15.206-22.83c18.527,2.954,1.04,32.524-10.803,30.905   C316.987,137.176,317.855,129.821,317.855,129.821z"/>
</g>
<g>
	<path style="fill:#F48462;" d="M288.885,226.694c0,0-5.939-31.103-9.001-34.471c-3.061-3.368-23.207-12.262-25.773-9.815   c-2.566,2.447,0.044,5.522,0.044,5.522s-3.83-2.188-5.272,0.103c-1.442,2.291,1.353,5.852,1.353,5.852s-3.054-1.923-2.649,2.34   c0.405,4.263,8.767,12.063,8.767,12.063s0.482,8.712,5.837,18.076c5.355,9.364,21.658,9.783,21.658,9.783L288.885,226.694z"/>
</g>
<g>
	<path d="M270.176,196.42c-0.102,0-0.205-0.023-0.3-0.074l-15.967-8.328c-0.319-0.167-0.442-0.56-0.276-0.878   c0.167-0.319,0.56-0.443,0.878-0.276l15.967,8.328c0.319,0.167,0.442,0.56,0.276,0.878   C270.637,196.293,270.41,196.42,270.176,196.42z"/>
</g>
<g>
	<path d="M265.86,204.317c-0.118,0-0.237-0.032-0.345-0.1l-15.623-9.781c-0.305-0.191-0.397-0.592-0.207-0.897   c0.19-0.305,0.592-0.398,0.897-0.206l15.623,9.781c0.305,0.19,0.397,0.593,0.207,0.897   C266.288,204.209,266.076,204.317,265.86,204.317z"/>
</g>
<g>
	<path style="fill:#465884;" d="M290.493,188.454c-2.26,0-3.768-0.241-3.933-0.269c-0.354-0.059-0.594-0.395-0.534-0.749   c0.059-0.354,0.387-0.593,0.749-0.535c0.106,0.018,10.81,1.713,18.884-4.39c0.287-0.217,0.695-0.16,0.912,0.126   c0.217,0.287,0.16,0.695-0.126,0.912C300.974,187.684,294.533,188.454,290.493,188.454z"/>
</g>
<g>
	<path style="fill:#6876AA;" d="M262.193,238.026c0,0,26.619,56.114,67.631,53.003s37.916-75.35,25.036-93.658   c-12.88-18.308-31.164-18.075-31.164-18.075l-16.744,47.068l-13.701-11.674L262.193,238.026z"/>
</g>
<g>
	<path style="fill:#6876AA;" d="M306.952,179.046c0,0-23.014,100.989-18.592,101.514c4.422,0.525,39.397,2.22,39.397,2.22   l-4.061-103.484L306.952,179.046z"/>
</g>
<g>
	<path style="fill:#F7B369;" d="M326.47,137.771c-0.338,0-0.623-0.26-0.648-0.603c-0.834-11.191-8.216-15.347-8.291-15.387   c-0.315-0.172-0.432-0.568-0.259-0.883c0.172-0.315,0.567-0.433,0.883-0.259c0.33,0.18,8.079,4.542,8.964,16.433   c0.027,0.358-0.242,0.671-0.601,0.697C326.502,137.771,326.486,137.771,326.47,137.771z"/>
</g>
<g>
	<path style="fill:#465884;" d="M332.848,250.845c-0.159,0-0.318-0.059-0.444-0.175l-33.156-30.912   c-0.263-0.246-0.277-0.657-0.032-0.92c0.246-0.264,0.657-0.277,0.92-0.033l33.156,30.912c0.263,0.246,0.277,0.657,0.032,0.92   C333.196,250.774,333.023,250.845,332.848,250.845z"/>
</g>
<g>
	<path style="fill:#465884;" d="M334.635,240.718c-6.366,0-15.231-2.579-15.726-2.726c-0.283-0.083-0.475-0.346-0.467-0.641   c0.008-0.295,0.212-0.548,0.499-0.616c1.841-0.442,18.092-4.233,21.525-1.192c0.559,0.495,0.809,1.151,0.723,1.899   c-0.106,0.924-0.577,1.669-1.4,2.215C338.626,240.427,336.771,240.718,334.635,240.718z M321.795,237.426   c5.354,1.349,14.383,3.063,17.275,1.146c0.495-0.328,0.765-0.745,0.826-1.277c0.037-0.324-0.053-0.564-0.293-0.776   C337.639,234.777,328.664,235.97,321.795,237.426z"/>
</g>
<g>
	<path d="M291.788,124.084c0,0-2.736,3.349-3.231,8.845c-0.495,5.495-0.495,5.495-0.495,5.495l22.626,7.196l0.729-11.017   L291.788,124.084z"/>
</g>
<g>
	<path d="M289.81,127.684c0,0-2.044,1.698-3.006,4.015c-0.961,2.317-2.022,6.938-2.022,6.938l-6.58-0.899l1.032-11.499l9.032-5.233   l5.362,0.733l-1.011,7.398L289.81,127.684z"/>
</g>
<g>
	<g>
		<path style="fill:#68B6D8;" d="M477.058,179.567c0,0,25.487,9.469,49.48,10.933c20.772,1.268,48.913-8.466,48.913-8.466    l16.671,36.132c0,0-54.171,43.544-87.74,25.253C461.099,219.835,477.058,179.567,477.058,179.567z"/>
	</g>
</g>
<g>
	<path style="fill:#F7B369;" d="M533.534,206.265c-0.697,0-1.327-0.271-1.836-0.792c-2.789-2.861-1.543-13.174-1.392-14.34   c0.036-0.28,0.249-0.505,0.526-0.556c0.282-0.055,0.558,0.081,0.691,0.329c0.6,1.106,5.81,10.897,4.079,14.181   c-0.356,0.678-0.973,1.08-1.78,1.164C533.725,206.26,533.629,206.265,533.534,206.265z M531.378,193.468   c-0.293,3.702-0.365,9.438,1.253,11.096c0.303,0.31,0.643,0.434,1.058,0.392c0.375-0.039,0.61-0.186,0.764-0.477   C535.353,202.769,533.32,197.445,531.378,193.468z"/>
</g>
<g>
	<g>
		<path style="fill:#F48462;" d="M577.908,185.32c0,0,4.803-10.191,11.621-13.804c6.818-3.614,14.299-5.257,12.146-1.17    c-2.153,4.086-7.702,10.311-7.702,10.311l11.014-0.458c0,0,7.481-1.643,12.698-1.86c5.217-0.217,5.963,3.749,5.963,3.749    s5.217-0.217,7.039,1.706c1.822,1.923-0.386,4.678-0.386,4.678s7.039,1.706,3.175,6.529c-3.865,4.823-19.875,10.817-27.357,12.459    c-7.481,1.643-23.216,0.298-23.216,0.298S568.516,207.709,577.908,185.32z"/>
	</g>
</g>
<g>
	<path d="M615.542,196.191c-0.15,0-0.302-0.052-0.425-0.158l-15.888-13.682c-0.273-0.234-0.303-0.646-0.068-0.918   c0.234-0.273,0.646-0.303,0.918-0.068l15.888,13.682c0.273,0.234,0.303,0.646,0.068,0.918   C615.906,196.115,615.724,196.191,615.542,196.191z"/>
</g>
<g>
	<path d="M579.139,194.22c-0.35,0-0.638-0.276-0.65-0.628c-0.013-0.359,0.268-0.661,0.627-0.673c5.779-0.204,9.788-1.7,11.914-4.444   c2.236-2.887,1.545-6.175,1.537-6.207c-0.077-0.351,0.145-0.698,0.495-0.776c0.352-0.073,0.698,0.145,0.776,0.496   c0.035,0.159,0.826,3.922-1.779,7.285c-2.375,3.064-6.714,4.729-12.896,4.948C579.155,194.22,579.147,194.22,579.139,194.22z"/>
</g>
<g>
	<path style="fill:#F7B369;" d="M585.174,221.559l-19.826-35.469c-0.512-0.917-0.185-2.075,0.732-2.587l8.352-4.668   c0.917-0.512,2.075-0.185,2.587,0.732l19.826,35.469c0.512,0.917,0.185,2.075-0.732,2.588l-8.352,4.668   C586.845,222.803,585.687,222.475,585.174,221.559z"/>
</g>
<g>
	<path style="fill:#A37B90;" d="M656.044,177.949c0,0,2.543,0.635,3.149,1.586c0.606,0.951,0.441,4.724,0.441,4.724   s25.979,2.507,52.212,32.165c26.54,30.005,29.968,47.956,21.195,61.039c-11.589,17.282-51.476,12.616-51.476,12.616   s-9.614,1.412-43.841,0.888c-31.623-0.483-49.26-0.888-49.26-0.888s-54.467,13.127-50.128-22.937   c5.755-47.832,63.146-78.516,74.241-82.883c10.016-3.942,19.17-4.044,19.17-4.044s0.499-1.84,1.046-2.158   C635.717,176.358,656.044,177.949,656.044,177.949z"/>
</g>
<g>
	<path d="M946.109,122.165c0,0,25.201,28.107,19.915,60.172c-4.773,28.952-47.461,16.368-47.461,16.368l-20.406-4.839   c0,0-7.055-17.027,3.286-33.431C911.785,144.031,946.109,122.165,946.109,122.165z"/>
</g>
<g>
	<g>
		<path style="fill:#465884;" d="M956.782,289.152c0,0-1.445-99.386-6.772-105.232c-5.327-5.846-37.879-12.028-56.626,1.961    c-11.733,8.755-15.267,48.947-11.733,74.215c3.062,21.898,4.296,30.331,4.296,30.331L956.782,289.152z"/>
	</g>
</g>
<g>
	<path style="fill:#F7B369;" d="M103.748,179.814c0,0-20.678-1.319-32.517,9.273c-11.839,10.592-17.875,100.092-17.875,100.092   s33.283,0.553,54.939,1.169c15.755,0.448,43.959-1.169,43.959-1.169s-8.925-91.654-14.075-102.85   C133.029,175.132,103.748,179.814,103.748,179.814z"/>
</g>
<g>
	<path d="M461.852,117.639c0,0-24.823-7.003-35.499,17.482c-10.677,24.485-2.192,91.886-2.192,91.886l55.159-10.636l-6.8-54.304   L461.852,117.639z"/>
</g>
<g>
	<g>
		<path style="fill:#68B6D8;" d="M450.118,175.317c0,0-32.792,8.62-38.059,25.163c-5.268,16.542,17.603,86.033,24.751,88.909    c7.148,2.877,67.933-0.211,67.933-0.211s4.133-48.441,3.24-54.35c-0.893-5.909-4.463-29.545-11.04-39.973    c-6.577-10.428-24.139-18.481-31.462-19.034C458.156,175.268,450.118,175.317,450.118,175.317z"/>
	</g>
</g>
<g>
	<rect x="0" y="277.895" style="fill:#EBE8EE;" width="1011.112" height="22.65"/>
</g>
<g>
	<g>
		<path style="fill:#F48462;" d="M444.947,161.98l0.387,17.525c0,0,3.272,4.968,13.542,5.575c7.651,0.452,10.296-1.334,10.296-1.334    l-1.261-8.852l-1.241-8.632l-18.602-3.663L444.947,161.98z"/>
	</g>
</g>
<g>
	<g>
		<path d="M448.068,162.599c0.055,0.477,0.249,1.038,0.546,1.68c4.115,8.667,14.877,10.318,19.296,10.616l-1.241-8.632    L448.068,162.599z"/>
	</g>
</g>
<g>
	<g>
		<path style="fill:#F48462;" d="M469.696,126.231c0,0,9.682,21.769,6.326,34.057c-3.356,12.288-14.543,10.431-21.245,8.104    c-6.702-2.327-9.832-6.407-9.832-6.407s-6.232,2.159-10.447-3.621c-4.216-5.78-1.688-12.467,1.869-14.018    c3.556-1.552,7.814,0.995,7.814,0.995l-3.365-6.323C440.815,139.017,454.586,106.682,469.696,126.231z"/>
	</g>
</g>
<g>
	<g>
		<path d="M444.18,145.34c0,0,9.383,1.923,15.936-8.505c6.553-10.428,5.967-14.72,5.967-14.72l6.466,10.805    c0,0,1.475-7.474-1.502-12.25c-2.977-4.776-6.085-3.797-6.085-3.797l-20.715,5.109l-5.501,16.576L444.18,145.34z"/>
	</g>
</g>
<g>
	<g>
		<path style="fill:#68B6D8;" d="M429.616,184.01c0,0-48.594,23.883-43.142,70.34c5.449,46.43,63.737,39.876,85.545,34.828    c21.808-5.048,4.8-38.182,4.8-38.182s-8.24,2.876-29.394-0.732C426.271,246.657,429.616,184.01,429.616,184.01z"/>
	</g>
</g>
<g>
	<path style="fill:#F7B369;" d="M431.06,248.419c-0.025,0-0.05-0.002-0.075-0.005c-4.714-0.548-20.138-2.596-20.709-5.936   c-0.222-1.302,1.337-2.064,1.85-2.314c8.349-4.075,18.953,6.689,19.401,7.15c0.192,0.197,0.239,0.494,0.117,0.741   C431.533,248.279,431.305,248.419,431.06,248.419z M416.197,240.556c-1.2,0-2.38,0.232-3.5,0.779   c-0.982,0.479-1.154,0.829-1.138,0.924c0.258,1.513,8.978,3.484,17.584,4.615C426.629,244.675,421.245,240.556,416.197,240.556z"/>
</g>
<g>
	<path d="M472.02,133.611c-0.052,0-0.103-0.006-0.154-0.018l-2.018-0.49c-0.35-0.084-0.564-0.436-0.48-0.786   c0.085-0.351,0.442-0.564,0.786-0.479l2.017,0.49c0.35,0.085,0.565,0.437,0.48,0.786   C472.58,133.412,472.313,133.611,472.02,133.611z"/>
</g>
<g>
	<path d="M459.923,135.582c-0.254,0-0.495-0.15-0.6-0.399c-0.14-0.331,0.016-0.713,0.348-0.852l4.691-1.971   c0.33-0.14,0.712,0.017,0.851,0.348c0.14,0.331-0.016,0.713-0.348,0.852l-4.691,1.971   C460.093,135.566,460.007,135.582,459.923,135.582z"/>
</g>
<g>
	<path d="M469.649,152.552c-0.162,0-0.324-0.06-0.45-0.181c-0.26-0.249-0.268-0.661-0.02-0.92c3.035-3.164-0.757-8.928-0.796-8.985   c-0.199-0.299-0.119-0.703,0.179-0.903c0.297-0.199,0.702-0.121,0.903,0.178c0.182,0.271,4.413,6.691,0.653,10.611   C469.991,152.485,469.82,152.552,469.649,152.552z"/>
</g>
<g>
	<path d="M444.255,155.371c-0.151,0-0.303-0.052-0.426-0.159l-7.405-6.404c-0.271-0.235-0.302-0.646-0.066-0.918   c0.236-0.272,0.647-0.302,0.918-0.066l7.405,6.404c0.271,0.235,0.302,0.646,0.066,0.918   C444.618,155.295,444.437,155.371,444.255,155.371z"/>
</g>
<g>
	<path d="M436.343,155.658c-0.246,0-0.481-0.14-0.591-0.378c-0.15-0.327-0.008-0.713,0.318-0.864l5.375-2.48   c0.322-0.151,0.713-0.009,0.863,0.318c0.15,0.327,0.008,0.713-0.318,0.864l-5.375,2.48   C436.528,155.639,436.435,155.658,436.343,155.658z"/>
</g>
<g>
	<path style="fill:#F7B369;" d="M444.766,177.126c0,0-2.074,0.212-2.319,1.513c-0.245,1.301,7.799,23.486,14.075,25.478   c6.276,1.991,11.183-17.609,11.482-17.276c0.299,0.333,11.548,8.69,12.757,8.423s-4.005-9.891-7.284-13.671   c-3.279-3.78-5.351-5.191-5.351-5.191s0.392,4.583,0.359,5.562c-0.032,0.979-3.921,3.146-10.825,2.03   C447.787,182.399,444.766,177.126,444.766,177.126z"/>
</g>
<g>
	<path d="M461.037,145.027c-0.331,0-0.614-0.252-0.646-0.588l-0.429-4.455c-0.021-0.22,0.07-0.436,0.243-0.572l2.546-2.019   c0.278-0.224,0.69-0.178,0.914,0.105c0.224,0.282,0.177,0.691-0.105,0.914l-2.269,1.799l0.395,4.103   c0.035,0.358-0.227,0.676-0.585,0.71C461.079,145.026,461.058,145.027,461.037,145.027z"/>
</g>
<g>
	<path d="M472.711,143.698c-0.331,0-0.614-0.252-0.646-0.588l-0.429-4.455c-0.02-0.213,0.065-0.422,0.228-0.56l1.936-1.634   c0.274-0.231,0.686-0.197,0.917,0.078c0.232,0.275,0.197,0.686-0.077,0.917l-1.676,1.414l0.396,4.115   c0.035,0.358-0.228,0.676-0.585,0.71C472.753,143.697,472.732,143.698,472.711,143.698z"/>
</g>
<g>
	<path style="fill:#F7B369;" d="M506.614,241.551c-0.024,0-0.048-0.002-0.072-0.004c-0.357-0.04-0.615-0.361-0.576-0.719   c3.212-29.276-9.786-38.401-9.918-38.489c-0.298-0.201-0.378-0.605-0.178-0.903c0.201-0.299,0.602-0.378,0.901-0.179   c0.564,0.377,13.795,9.576,10.489,39.714C507.223,241.304,506.941,241.551,506.614,241.551z"/>
</g>
<g>
	<path style="fill:#F7B369;" d="M461.503,250.833c-0.018,0-0.035-0.001-0.053-0.003l-30.441-2.414   c-0.358-0.028-0.626-0.342-0.598-0.7c0.029-0.358,0.33-0.64,0.7-0.597l30.442,2.414c0.358,0.028,0.626,0.342,0.597,0.7   C462.124,250.574,461.839,250.833,461.503,250.833z"/>
</g>
<g>
	<path d="M463.619,161.145c-0.384,0-0.79-0.058-1.216-0.191c-3.154-0.99-3.133-4.733-3.13-4.893   c0.003-0.204,0.102-0.395,0.267-0.516c0.164-0.12,0.378-0.155,0.572-0.097l7.261,2.201c0.195,0.059,0.352,0.206,0.422,0.397   s0.048,0.404-0.061,0.576C467.658,158.74,466.092,161.145,463.619,161.145z M460.666,156.977c0.174,0.921,0.676,2.28,2.128,2.735   c1.445,0.455,2.625-0.416,3.279-1.096L460.666,156.977z"/>
</g>
<g>
	<path style="fill:#465884;" d="M827.783,248.606c0,0,17.485-12.4,27.899-21.184c10.414-8.785,33.236-40.969,42.475-44.524   c9.239-3.555-10.682,83.091-10.682,83.091s-28.194,21.649-49.022,9.727C817.624,263.793,827.783,248.606,827.783,248.606z"/>
</g>
<g>
	<path style="fill:#F7B369;" d="M136.648,184.091c0,0,11.507,5.882,26.596,34.069c13.801,25.782,20.061,54.13,6.695,62.593   c-34.085,21.581-77.281-10.25-77.281-10.25L136.648,184.091z"/>
</g>
<g>
	<path d="M109.227,135.268c0,0,16.751,2.508,19.338-13.538c2.754-17.084-12.981-20.341-20.436-14.076   c-7.456,6.265-6.921,13.459-6.921,13.459s-4.277-4.719-9.939-0.028c-4.155,3.443-2.844,9.892-2.844,9.892s-8.648-1.213-8.606,6.45   c0.042,7.663,5.074,12.061,5.074,12.061L109.227,135.268z"/>
</g>
<g>
	<g>
		<path style="fill:#F48462;" d="M90.829,163.433l-0.061,18.063c0,0,3.24,5.204,13.804,6.098c7.87,0.666,10.641-1.104,10.641-1.104    l-1.067-9.152l-1.052-8.925l-19.067-4.261L90.829,163.433z"/>
	</g>
</g>
<g>
	<g>
		<path d="M94.028,164.152c0.044,0.493,0.23,1.076,0.519,1.745c4.012,9.037,15.055,11.019,19.6,11.442l-1.052-8.925L94.028,164.152z    "/>
	</g>
</g>
<g>
	<g>
		<path style="fill:#F48462;" d="M117.26,127.254c0,0,9.404,22.679,5.625,35.249c-3.779,12.57-15.255,10.364-22.098,7.791    c-6.843-2.573-9.961-6.858-9.961-6.858s-6.476,2.06-10.667-4.005c-4.191-6.065-1.412-12.887,2.292-14.392    c3.704-1.505,8.023,1.23,8.023,1.23l-3.301-6.602C87.173,139.669,102.208,106.719,117.26,127.254z"/>
	</g>
</g>
<g>
	<path d="M89.776,155.952c-0.132,0-0.266-0.04-0.381-0.124l-8.118-5.88c-0.291-0.211-0.356-0.618-0.146-0.909   c0.211-0.291,0.618-0.356,0.909-0.145l8.118,5.88c0.291,0.211,0.356,0.618,0.146,0.909   C90.176,155.858,89.978,155.952,89.776,155.952z"/>
</g>
<g>
	<path d="M82.359,155.826c-0.291,0-0.556-0.196-0.63-0.491c-0.088-0.349,0.123-0.703,0.471-0.791l5.364-1.361   c0.348-0.086,0.703,0.123,0.791,0.471c0.088,0.349-0.123,0.703-0.471,0.791l-5.364,1.361   C82.466,155.819,82.412,155.826,82.359,155.826z"/>
</g>
<g>
	<path d="M102.1,136.662c-0.14,0-0.28-0.044-0.399-0.137c-0.284-0.221-0.335-0.63-0.115-0.914c3.038-3.91,6.981-1.821,7.021-1.8   c0.316,0.172,0.432,0.567,0.26,0.883c-0.171,0.316-0.565,0.432-0.881,0.261c-0.136-0.072-3.03-1.557-5.371,1.455   C102.486,136.575,102.295,136.662,102.1,136.662z"/>
</g>
<g>
	<path d="M120.799,137.669c-0.146,0-0.294-0.049-0.415-0.15c-1.955-1.626-4.038-0.438-4.059-0.425   c-0.311,0.181-0.709,0.077-0.891-0.232c-0.182-0.311-0.078-0.709,0.232-0.891c0.117-0.069,2.901-1.655,5.549,0.547   c0.276,0.23,0.314,0.64,0.085,0.917C121.171,137.589,120.985,137.669,120.799,137.669z"/>
</g>
<g>
	<path d="M115.162,155.992c-0.063,0-0.125-0.009-0.188-0.028c-0.344-0.104-0.539-0.467-0.435-0.811   c1.983-6.579-1.485-11.398-1.52-11.446c-0.213-0.289-0.152-0.696,0.137-0.91c0.29-0.213,0.697-0.153,0.909,0.135   c0.161,0.216,3.899,5.371,1.72,12.597C115.699,155.81,115.441,155.992,115.162,155.992z"/>
</g>
<g>
	<path d="M119.513,144.55c-0.287,0-0.55-0.191-0.628-0.481l-1.117-4.146c-0.094-0.347,0.112-0.705,0.459-0.798   c0.346-0.093,0.705,0.112,0.798,0.459l1.117,4.146c0.094,0.347-0.112,0.705-0.459,0.798   C119.627,144.543,119.569,144.55,119.513,144.55z"/>
</g>
<g>
	<path d="M108.081,145.486c-0.287,0-0.55-0.191-0.628-0.481l-1.117-4.146c-0.094-0.347,0.112-0.705,0.459-0.798   c0.346-0.091,0.705,0.113,0.798,0.459l1.117,4.146c0.094,0.347-0.112,0.705-0.459,0.798   C108.194,145.479,108.137,145.486,108.081,145.486z"/>
</g>
<g>
	<path d="M119.145,132.364c0,0-1.949-3.638-6.455-3.684c-4.506-0.046-7.148,3.119-7.148,3.119s1.951,7.594-4.189,11.605   c-6.141,4.01-10.878,2.867-10.878,2.867l-4.439-1.599l-3.238-6.505l12.903-13.813l16.67-8.728l8.454,7.727L119.145,132.364z"/>
</g>
<g>
	<path style="fill:#F7B369;" d="M90.994,180.631c0,0-30.526-5.318-49.356,23.877c-15.986,24.786-16.674,48.129-16.674,48.129   l48.284-4.05L90.994,180.631z"/>
</g>
<g>
	<path style="fill:#F48462;" d="M24.965,252.637c0,0-1.302,37.084,28.761,34.546c34.136-2.883,51.664-69.671,51.664-69.671   l10.482-5.823c0,0-2.435,8.136,5.924,4.183c8.359-3.953,7.241-12.376,7.241-12.376l-8.452-17.35c0,0,14.776-12.594,10.688-13.521   c-6.313-1.431-27.003,11.11-27.003,11.11s1.589-8.213-3.113-7.121c-5.075,1.179-7.756,16.339-7.756,16.339l-56.724,57.534   L24.965,252.637z"/>
</g>
<g>
	<path d="M115.871,212.34c-0.198,0-0.392-0.092-0.518-0.257c-0.179-0.235-0.178-0.56,0.004-0.794l4.027-5.178   c0.221-0.284,0.63-0.336,0.913-0.114c0.284,0.221,0.335,0.63,0.114,0.913l-2.518,3.236l3.445-1.425   c0.334-0.136,0.713,0.021,0.851,0.353c0.137,0.332-0.021,0.713-0.353,0.851l-5.717,2.365   C116.039,212.323,115.954,212.34,115.871,212.34z"/>
</g>
<g>
	<path d="M116.831,189.096c-0.219,0-0.433-0.11-0.556-0.311c-0.188-0.306-0.091-0.707,0.215-0.895l3.754-2.3   c0.305-0.186,0.707-0.091,0.895,0.215c0.188,0.306,0.091,0.707-0.215,0.895l-3.754,2.3   C117.064,189.065,116.947,189.096,116.831,189.096z"/>
</g>
<g>
	<path style="fill:#F7B369;" d="M90.39,193.148l20.151,28.632c0,0-13.511,47.974-40.666,62.743   c-27.155,14.768-48.222-5.867-44.911-31.886C28.276,226.617,90.39,193.148,90.39,193.148z"/>
</g>
<g>
	<path d="M111.354,161.582c-0.114,0-0.23-0.03-0.335-0.093l-4.137-2.487c-0.308-0.185-0.408-0.585-0.222-0.893   c0.184-0.309,0.584-0.409,0.893-0.222l4.137,2.487c0.308,0.185,0.408,0.585,0.222,0.893   C111.79,161.47,111.574,161.582,111.354,161.582z"/>
</g>
<g>
	<path d="M104.271,184.385c-0.165,0-0.329-0.063-0.453-0.184c-0.207-0.2-0.258-0.513-0.125-0.768   c0.023-0.044,2.266-4.466-0.476-7.741c-0.43-0.513-0.776-0.525-0.999-0.489c-1.767,0.289-4.219,4.977-5.35,7.865   c-0.132,0.334-0.509,0.501-0.843,0.369c-0.335-0.131-0.5-0.508-0.369-0.843c0.327-0.835,3.281-8.173,6.352-8.675   c0.569-0.091,1.417-0.006,2.207,0.938c2.146,2.564,1.819,5.578,1.295,7.435l6.351-3.565c0.313-0.176,0.711-0.065,0.886,0.248   c0.176,0.314,0.064,0.711-0.249,0.886l-7.91,4.441C104.489,184.357,104.379,184.385,104.271,184.385z"/>
</g>
<g>
	<path style="fill:#F48462;" d="M69.875,216.816c0,0-11.948-0.911-17.625,1.074c-5.678,1.985-16.819,15.717-15.265,17.947   c1.554,2.229,5.384,0.324,5.384,0.324s-2.335,5.119,2.385,5.265C49.473,241.573,69.875,216.816,69.875,216.816z"/>
</g>
<g>
	<path style="fill:none;" d="M161.595,243.416c-0.122,0-0.246-0.035-0.355-0.106c-14.765-9.653-50.825-13.04-51.187-13.073   c-0.358-0.033-0.622-0.35-0.589-0.708c0.033-0.358,0.356-0.626,0.707-0.589c1.493,0.137,36.745,3.449,51.781,13.28   c0.301,0.197,0.386,0.601,0.189,0.901C162.015,243.311,161.807,243.416,161.595,243.416z"/>
</g>
<g>
	<path style="fill:none;" d="M110.542,222.432c-0.21,0-0.416-0.102-0.542-0.289L90.398,192.85l-14.985,16.807   c-0.239,0.268-0.65,0.292-0.919,0.052c-0.268-0.239-0.292-0.65-0.053-0.919l15.545-17.433c0.134-0.151,0.327-0.232,0.531-0.216   c0.201,0.014,0.384,0.12,0.496,0.288l20.07,29.991c0.2,0.299,0.12,0.703-0.179,0.903   C110.793,222.395,110.667,222.432,110.542,222.432z"/>
</g>
<g>
	<path style="fill:none;" d="M146.047,234.996c-4.404,0-10.083-0.813-12.456-1.186c-0.287-0.045-0.509-0.274-0.545-0.563   c-0.036-0.288,0.124-0.566,0.392-0.679c0.555-0.234,13.628-5.691,17.819-0.964c0.823,0.928,0.721,1.623,0.491,2.044   C151.196,234.658,148.886,234.996,146.047,234.996z M136.271,232.887c7.492,1.01,13.807,1.1,14.336,0.137   c0.01-0.019-0.007-0.199-0.323-0.556C147.828,229.696,140.672,231.376,136.271,232.887z"/>
</g>
<g>
	<path style="fill:none;" d="M95.391,185.833c-0.042,0-0.084-0.004-0.126-0.012c-3.431-0.672-4.716-3.631-4.916-5.102   c-0.048-0.356,0.201-0.684,0.557-0.733c0.354-0.045,0.684,0.201,0.733,0.556c0.022,0.155,0.527,3.345,3.876,4.001   c0.353,0.069,0.583,0.411,0.514,0.764C95.968,185.618,95.696,185.833,95.391,185.833z"/>
</g>
<g>
	<path d="M42.022,237.109c-0.165,0-0.33-0.063-0.457-0.189c-0.256-0.252-0.259-0.664-0.006-0.92l11.051-11.2   c0.252-0.256,0.664-0.26,0.92-0.006c0.256,0.252,0.259,0.664,0.006,0.92l-11.051,11.2C42.358,237.044,42.19,237.109,42.022,237.109   z"/>
</g>
<g>
	<g>
		<g>
			<g>
				<path style="fill:#F48462;" d="M656.014,145.18c0,0,11.858-5.062,12.781,4.12c1.07,10.638-11.644,10.736-11.644,10.736      L656.014,145.18z"/>
			</g>
		</g>
	</g>
</g>
<g>
	<path d="M661.919,154.708c-0.111,0-0.224-0.028-0.327-0.089c-0.311-0.181-0.415-0.58-0.234-0.89l3.957-6.783   c0.182-0.31,0.578-0.418,0.891-0.234c0.31,0.181,0.415,0.58,0.234,0.89l-3.957,6.783   C662.361,154.593,662.143,154.708,661.919,154.708z"/>
</g>
<g>
	<path style="fill:#F48462;" d="M698.29,214.483c0,0-2.66,16.297,10.537,15.788c13.197-0.509,13.901-19.344,13.901-19.344   L698.29,214.483z"/>
</g>
<g>
	<path style="fill:#465884;" d="M713.701,195.516c0,0,14.192-25.53,16.941-24.237s-34.047,56.747-35.695,55.956   C693.3,226.443,713.701,195.516,713.701,195.516z"/>
</g>
<g>
	<path d="M666.522,152.674c-0.011,0-3.394-0.057-3.394-0.057c-0.359-0.006-0.647-0.302-0.64-0.662   c0.006-0.36,0.281-0.639,0.661-0.64l3.383,0.057c0.359,0.006,0.646,0.302,0.64,0.662   C667.167,152.39,666.877,152.674,666.522,152.674z"/>
</g>
<g>
	<g>
		<g>
			<g>
				<path style="fill:#F48462;" d="M634.636,170.473l-0.1,12.451c0,0,4.808,2.588,10.816,2.691c8.112,0.138,10.85-4.674,10.85-4.674      l-0.061-14.598L634.636,170.473z"/>
			</g>
		</g>
	</g>
</g>
<g>
	<g>
		<g>
			<g>
				<path d="M634.636,170.454c0,0,3.887,10.079,13.097,8.703c7.424-1.109,9.545-11.636,9.545-11.636L634.636,170.454z"/>
			</g>
		</g>
	</g>
</g>
<g>
	<g>
		<g>
			<g>
				<path style="fill:#F48462;" d="M659.784,134.995c0,0,5.201,22.789-1.327,32.882c-7,10.824-18.273,7.593-22.493,4.348      c-5.691-4.376-6.857-10.447-6.857-10.447s-7.823,1.558-10.432-4.822c-2.74-6.701,2.132-12.109,6.045-12.428      c3.913-0.319,4.369,0.393,4.369,0.393l-1.148-7.157C627.941,137.764,651.73,111.324,659.784,134.995z"/>
			</g>
		</g>
	</g>
</g>
<g>
	<path d="M627.806,155.196c-0.15,0-0.301-0.052-0.424-0.157l-6.037-5.178c-0.273-0.234-0.305-0.645-0.07-0.918   c0.235-0.273,0.646-0.302,0.918-0.07l6.037,5.178c0.272,0.234,0.305,0.645,0.07,0.918   C628.172,155.119,627.989,155.196,627.806,155.196z"/>
</g>
<g>
	<path d="M622.231,156.15c-0.198,0-0.393-0.089-0.521-0.26c-0.216-0.287-0.158-0.695,0.129-0.911l3.563-2.68   c0.289-0.217,0.696-0.158,0.912,0.129c0.216,0.287,0.158,0.695-0.129,0.911l-3.563,2.68   C622.505,156.107,622.367,156.15,622.231,156.15z"/>
</g>
<g>
	<path d="M639.575,148.901c-0.342,0-0.629-0.267-0.648-0.613l-0.224-3.834c-0.021-0.359,0.253-0.667,0.611-0.688   c0.352-0.017,0.667,0.253,0.688,0.612l0.224,3.833c0.021,0.359-0.253,0.667-0.611,0.688   C639.601,148.901,639.588,148.901,639.575,148.901z"/>
</g>
<g>
	<path d="M654.251,148.097c-0.342,0-0.629-0.267-0.648-0.613l-0.225-3.834c-0.021-0.359,0.253-0.667,0.611-0.688   c0.336-0.012,0.667,0.253,0.688,0.612l0.225,3.834c0.021,0.359-0.253,0.667-0.611,0.688   C654.277,148.096,654.264,148.097,654.251,148.097z"/>
</g>
<g>
	<path d="M647.479,158.268c-0.042,0-0.085-0.004-0.127-0.012c-0.352-0.07-0.582-0.412-0.513-0.765   c1.118-5.659-0.727-10.35-0.745-10.397c-0.135-0.333,0.027-0.713,0.361-0.847c0.33-0.132,0.712,0.028,0.846,0.361   c0.083,0.206,2.007,5.1,0.815,11.134C648.055,158.053,647.784,158.268,647.479,158.268z"/>
</g>
<g>
	<path d="M656.183,139.808c-0.125,0-0.253-0.036-0.364-0.112c-1.155-0.784-3.077-0.73-3.722-0.642   c-0.352,0.048-0.684-0.201-0.732-0.558c-0.049-0.356,0.201-0.684,0.558-0.732c0.112-0.016,2.827-0.366,4.626,0.855   c0.298,0.202,0.375,0.606,0.174,0.904C656.597,139.708,656.392,139.808,656.183,139.808z"/>
</g>
<g>
	<path d="M637.514,142.071c-0.14,0-0.28-0.044-0.398-0.137c-0.284-0.22-0.336-0.629-0.116-0.913   c1.333-1.718,4.021-2.226,4.134-2.246c0.358-0.063,0.692,0.169,0.757,0.522c0.066,0.354-0.169,0.692-0.522,0.758   c-0.022,0.004-2.314,0.442-3.339,1.764C637.9,141.985,637.708,142.071,637.514,142.071z"/>
</g>
<g>
	<path d="M627.284,144.959c0,0,2.459,7.027,3.37,6.741c0.91-0.287-0.622-11.37-3.27-11.817   C624.736,139.436,627.284,144.959,627.284,144.959z"/>
</g>
<g>
	<path d="M628.399,143.919c0,0,7.844-1.049,12.922-5.394c4.289-3.669,5.771-8.679,5.771-8.679s3.365-0.601,8.339,2.131   c4.974,2.732,5.806,11.885,5.806,11.885s8.152-15.982,3.633-21.271c-4.519-5.29-11.248-0.379-11.248-0.379   s0.73-10.221-13.141-5.596c-13.871,4.625-16.486,16.926-16.486,16.926s-4.821-0.185-5.197,4.292c-0.376,4.477,1.66,8.91,1.66,8.91   s1.991-2.086,5.26-1.055c3.269,1.031,3.269,1.031,3.269,1.031L628.399,143.919z"/>
</g>
<g>
	<path style="fill:#A37B90;" d="M656.044,177.949c0,0-2.453,2.803-8.662,3.539c-6.21,0.736-12.138-3.785-12.138-3.785l-3.323,7.732   l10.481,5.129l16.489-2.947l-0.695-7.451L656.044,177.949z"/>
</g>
<g>
	<path style="fill:#92B4EA;" d="M607.487,246.429c-0.082,0-0.166-0.016-0.246-0.049c-0.259-0.104-25.992-10.404-47.193-1.083   c-0.326,0.147-0.712-0.004-0.857-0.334c-0.144-0.329,0.005-0.713,0.334-0.857c21.711-9.547,47.946,0.961,48.209,1.069   c0.333,0.136,0.492,0.516,0.356,0.849C607.986,246.275,607.743,246.429,607.487,246.429z"/>
</g>
<g>
	<path style="fill:#92B4EA;" d="M587.396,241.356c-0.062,0-0.123-0.009-0.185-0.027c-3.507-1.035-14.981-4.652-15.368-7.724   c-0.06-0.474,0.069-1.157,1.023-1.726c4.885-2.925,13.997,7.23,15.018,8.396c0.191,0.218,0.215,0.535,0.059,0.779   C587.823,241.246,587.614,241.356,587.396,241.356z M574.898,232.649c-0.503,0-0.963,0.108-1.364,0.348   c-0.158,0.095-0.42,0.277-0.398,0.445c0.17,1.35,6.041,3.943,12.104,5.912C582.421,236.509,577.897,232.649,574.898,232.649z"/>
</g>
<g>
	<g>
		<g>
			<g>
				<path style="fill:#F48462;" d="M719.263,205.467c0,0,11.641-0.396,8.519-5.987c-3.122-5.591-23.784-9.805-26.51-3.755      C698.547,201.775,719.263,205.467,719.263,205.467z"/>
			</g>
		</g>
	</g>
</g>
<g>
	<g>
		<g>
			<g>
				<path style="fill:#F48462;" d="M717.248,214.891c0,0,11.641-0.396,8.519-5.987c-3.121-5.591-23.784-9.805-26.509-3.755      C696.533,211.199,717.248,214.891,717.248,214.891z"/>
			</g>
		</g>
	</g>
</g>
<g>
	<g>
		<g>
			<g>
				<path style="fill:#F48462;" d="M709.555,221.612c2.575,0.479,5.248,0.375,7.707-0.527c2.196-0.806,4.019-2.215,2.527-4.623      c-2.983-4.818-21.418-7.716-23.585-2.259C694.588,218.27,704.438,220.659,709.555,221.612z"/>
			</g>
		</g>
	</g>
</g>
<g>
	<path d="M722.187,204.2c-0.033,0-0.067-0.003-0.102-0.008l-15.881-2.479c-0.354-0.056-0.598-0.389-0.543-0.744   c0.056-0.354,0.387-0.601,0.744-0.542l15.881,2.478c0.354,0.056,0.598,0.389,0.543,0.744   C722.779,203.971,722.503,204.2,722.187,204.2z"/>
</g>
<g>
	<path d="M718.805,213.906c-0.033,0-0.067-0.003-0.102-0.008l-15.881-2.479c-0.354-0.056-0.598-0.389-0.543-0.744   c0.056-0.355,0.385-0.597,0.744-0.543l15.881,2.479c0.354,0.056,0.598,0.389,0.543,0.744   C719.397,213.677,719.121,213.906,718.805,213.906z"/>
</g>
<g>
	<path style="fill:#92B4EA;" d="M648.974,190.559c-1.007,0-2.085-0.104-3.233-0.34c-0.353-0.073-0.579-0.417-0.507-0.769   c0.073-0.353,0.425-0.575,0.768-0.507c8.9,1.831,13.03-4.948,13.071-5.016c0.183-0.308,0.583-0.413,0.892-0.228   c0.31,0.184,0.411,0.582,0.228,0.892C660.153,184.659,656.552,190.559,648.974,190.559z"/>
</g>
<g>
	<path d="M644.862,164.906c-1.35,0-3.461-0.537-4.963-3.458c-0.164-0.32-0.038-0.712,0.281-0.876   c0.324-0.165,0.714-0.037,0.877,0.281c1.829,3.561,4.572,2.683,4.686,2.643c0.34-0.115,0.709,0.065,0.826,0.403   c0.116,0.338-0.059,0.706-0.397,0.826C646.16,164.73,645.636,164.906,644.862,164.906z"/>
</g>
<g>
	<g>
		<path d="M905.025,142.928c0,0-4.726-11.018-3.822-15.853c0.904-4.835,20.067-19.06,36.125-11.336    c16.058,7.724,16.887,28.969,13.14,37.707c-9.65,22.501-29.012,11.858-29.012,11.858S890.519,155.465,905.025,142.928z"/>
	</g>
</g>
<g>
	<g>
		<g>
			<g>
				<g>
					<path style="fill:#F48462;" d="M907.52,168.537l-0.021,0.438l-0.076,8.275l-0.086,6.487c0,0-0.634,1.475,6.927,1.392       c10.135-0.151,13.624-4.314,13.624-4.314l1.246-15.15l-3.093,0.419L907.52,168.537z"/>
				</g>
			</g>
		</g>
	</g>
</g>
<g>
	<g>
		<g>
			<g>
				<g>
					<path d="M907.499,168.975l-0.076,8.275c4.939-0.332,13.984-1.977,18.007-9.501c0.311-0.613,0.525-1.167,0.61-1.633       l-18.505,2.736L907.499,168.975z"/>
				</g>
			</g>
		</g>
	</g>
</g>
<g>
	<g>
		<g>
			<g>
				<g>
					<path style="fill:#F48462;" d="M906.422,129.294c0,0-10.547,20.989-7.812,33.247c2.735,12.257,13.839,10.948,20.547,8.968       c6.708-1.981,9.981-5.853,9.981-5.853s6.037,2.415,10.457-3.081c4.42-5.497,2.241-12.199-1.189-13.893       c-3.43-1.694-7.742,0.617-7.742,0.617l3.608-6.071C934.271,143.227,922.21,110.743,906.422,129.294z"/>
				</g>
			</g>
		</g>
	</g>
</g>
<g>
	<g>
		<path d="M930.663,149.298c0,0-9.157-5.252-12.233-12.17c-3.077-6.918-3.043-10.313-3.043-10.313s-1.583,4.368-5.054,5.25    c-3.47,0.882-5.603,0.9-5.603,0.9l-2.48,6.198l2.128-14.956c0,0,9.506-4.518,10.746-4.46c1.241,0.058,16.767,3.603,17.628,4.588    c0.861,0.985,5.224,13.379,5.224,13.379l0.083,5.51L930.663,149.298z"/>
	</g>
</g>
<g>
	<g>
		<path style="fill:#F48462;" d="M905.422,266.146c0,0-3.895-0.784-8.778-2.948c-4.883-2.164-24.706-2.807-31.508-3.083    c-6.803-0.275-24.083,6.836-22.246,9.183c1.837,2.347,17.677,0.566,17.677,0.566s-13.625,10.186-11.893,12.682    c1.732,2.496,6.761,0.335,6.761,0.335s-4.277,3.009-0.647,4.752c3.63,1.743,19.119-6.956,19.119-6.956s-7.739,10.109-5.263,11.555    c2.476,1.445,13.519-7.256,13.519-7.256s11.496,10.637,19.755,4.736c8.259-5.901,10.734-11.045,10.734-11.045L905.422,266.146z"/>
	</g>
</g>
<g>
	<g>
		<path style="fill:#465884;" d="M950.011,183.919c0,0,45,25.717,38.105,83.98c-4.777,40.362-93.512,28.581-93.512,28.581    l-1.218-36.385c0,0,46.688-12.673,50.311-14.649C950.699,241.628,950.011,183.919,950.011,183.919z"/>
	</g>
</g>
<g>
	<path style="fill:none;" d="M634.636,221.439v-5.386c0,0,7.577-2.141,17.374-1.356c9.797,0.785,16.849,5.493,16.849,5.493   s8.906-4.793,19.37-5.666c10.464-0.873,16.573,0,16.573,0l-1.139,6.915l-37.141,7.122L634.636,221.439z"/>
</g>
<g>
	<polygon style="fill:#68B6D8;" points="705.609,219.144 695.14,290.968 623.317,290.968 633.786,219.144  "/>
</g>
<g>
	<polygon style="fill:#53AAC9;" points="671.816,219.144 662.948,290.968 655.98,290.968 664.848,219.144  "/>
</g>
<g>
	<path style="fill:#F48462;" d="M609.786,253.64c0,0,10.151-21.726,11.775-23.274s20.545-7.975,23.119-7.849   c2.574,0.126-1.469,5.861-3.494,7.479c-2.025,1.618-4.639,3.365-4.639,3.365s14.164,0.002,15.48,2.395   c1.316,2.392-2.478,4.601-2.478,4.601s5.069,0.431,3.251,3.686c-1.818,3.255-15.718,6.893-15.718,6.893   s-2.653,13.817-12.008,17.092c-9.355,3.275-13.727,2.348-13.727,2.348L609.786,253.64z"/>
</g>
<g>
	<path d="M625.718,235.023c-0.332,0-0.615-0.254-0.647-0.591c-0.033-0.358,0.231-0.675,0.588-0.709l10.828-1.01   c0.356-0.034,0.675,0.23,0.709,0.588c0.033,0.358-0.231,0.675-0.588,0.709l-10.828,1.01   C625.759,235.021,625.739,235.023,625.718,235.023z"/>
</g>
<g>
	<path d="M631.809,242.241c-0.344,0-0.631-0.27-0.649-0.617c-0.019-0.358,0.257-0.665,0.616-0.684l10.406-0.549   c0.349,0.006,0.665,0.257,0.685,0.616c0.018,0.358-0.257,0.665-0.616,0.685l-10.406,0.549   C631.833,242.24,631.821,242.241,631.809,242.241z"/>
</g>
<g>
	<g>
		<path style="fill:#465884;" d="M366.16,232.41c0,0,7.991-28.095,10.963-27.464c2.972,0.631-20.198,63.02-21.983,62.625    C353.356,267.177,366.16,232.41,366.16,232.41z"/>
	</g>
	<g>
		<path style="fill:#A37B90;" d="M360.434,266.659c-1.695,0.675-10.485-35.315-10.485-35.315s-4.379-13.467-6.09-22.021    c-0.753-3.736-0.989-6.545-0.141-6.89c0.565-0.22,1.632,2.166,2.982,6.153C352.084,224.579,361.784,266.126,360.434,266.659z"/>
	</g>
	<g>
		<path style="fill:#B1A5B7;" d="M366.235,270.646h-16.51c-1.071,0-1.982-0.794-2.148-1.871l-4.234-27.485    c-0.207-1.343,0.813-2.557,2.148-2.557h24.979c1.335,0,2.355,1.214,2.148,2.557l-4.234,27.485    C368.217,269.853,367.306,270.646,366.235,270.646z"/>
	</g>
	<g>
		<path style="fill:none;" d="M346.7,208.586l-2.841,0.738c-0.753-3.736-0.989-6.545-0.141-6.89    C344.283,202.213,345.35,204.599,346.7,208.586z"/>
	</g>
	<g>
		<path style="fill:#B1A5B7;" d="M305.282,295.029h92.906c3.33,0,6.029-2.699,6.029-6.03v-0.3c0-3.33-2.699-6.029-6.029-6.029    h-92.906V295.029z"/>
	</g>
	<g>
		<path style="fill:#C8BCCE;" d="M305.456,295.029h59.551c3.141,0,5.687-2.546,5.687-5.687v-0.985c0-3.141-2.546-5.687-5.687-5.687    h-59.551c-1.118,0-2.024,0.906-2.024,2.024v8.311C303.432,294.123,304.338,295.029,305.456,295.029z"/>
	</g>
	<g>
		<path style="fill:none;" d="M303.432,292.642h60.654c2.137,0,3.87-1.733,3.87-3.87v-0.107c0-2.137-1.733-3.87-3.87-3.87    h-60.654V292.642z"/>
	</g>
	<g>
		<path style="fill:#ECE8EF;" d="M380.687,282.67H324.03c-3.32,0-6.012-2.692-6.012-6.012c0-3.32,2.692-6.012,6.012-6.012h56.657    c1.039,0,1.882,0.843,1.882,1.882v8.26C382.569,281.828,381.726,282.67,380.687,282.67z"/>
	</g>
	<g>
		<path style="fill:#C8BCCE;" d="M394.503,282.67h-56.657c-3.32,0-6.012-2.692-6.012-6.012c0-3.32,2.692-6.012,6.012-6.012h56.657    c1.039,0,1.882,0.843,1.882,1.882v8.26C396.385,281.828,395.542,282.67,394.503,282.67z"/>
	</g>
	<g>
		<path style="fill:none;" d="M396.385,280.348h-58.106c-2.108,0-3.817-1.709-3.817-3.817c0-2.108,1.709-3.817,3.817-3.817    h58.106V280.348z"/>
	</g>
</g>
<g>
	<path style="fill:#B1A5B7;" d="M492.9,289.178h63.515c3.911,0,7.081-3.17,7.081-7.081c0-3.911-3.17-7.081-7.081-7.081H492.9   c-0.447,0-0.809,0.362-0.809,0.809v12.544C492.092,288.816,492.454,289.178,492.9,289.178z"/>
</g>
<g>
	<path style="fill:#C8BCCE;" d="M490.884,289.178h49.151c3.91,0,7.081-3.17,7.081-7.081c0-3.911-3.17-7.081-7.081-7.081h-49.151   c-1.114,0-2.016,0.903-2.016,2.016v10.129C488.868,288.276,489.771,289.178,490.884,289.178z"/>
</g>
<g>
	<path style="fill:none;" d="M488.868,286.444h51.382c2.483,0,4.496-2.013,4.496-4.496c0-2.483-2.013-4.496-4.496-4.496h-51.382   V286.444z"/>
</g>
<g>
	<path style="fill:#A37B90;" d="M858.833,241.374c-0.364,0-0.726-0.091-1.074-0.272c-3.132-1.633-4.697-10.76-4.865-11.795   c-0.043-0.263,0.079-0.525,0.308-0.662c0.227-0.138,0.516-0.123,0.729,0.039c0.834,0.633,8.136,6.292,7.755,10.091   c-0.071,0.708-0.443,1.691-1.815,2.352C859.528,241.291,859.179,241.374,858.833,241.374z M854.504,230.819   c0.672,3.195,2.065,8.194,3.856,9.127c0.318,0.168,0.61,0.168,0.945,0.008c0.896-0.433,1.048-0.955,1.083-1.31   C860.605,236.493,856.965,232.906,854.504,230.819z"/>
</g>
<g>
	<path style="fill:#A37B90;" d="M914.051,185.705c-4.293,0-6.824-1.29-7.018-1.392c-0.317-0.168-0.438-0.56-0.271-0.878   c0.167-0.317,0.559-0.439,0.878-0.274c0.084,0.044,8.55,4.295,21.153-3.488c0.307-0.189,0.708-0.094,0.896,0.212   c0.188,0.306,0.094,0.706-0.212,0.896C923.192,184.663,917.911,185.705,914.051,185.705z"/>
</g>
<g>
	<path style="fill:#A37B90;" d="M893.385,260.746c-0.282,0-0.542-0.185-0.625-0.47c-0.101-0.345,0.098-0.706,0.443-0.807   l49.813-14.504l-0.738-13.211c-0.021-0.358,0.254-0.666,0.613-0.686c0.325-0.035,0.666,0.254,0.685,0.613l0.768,13.728   c0.018,0.302-0.177,0.576-0.468,0.661l-50.31,14.648C893.506,260.737,893.445,260.746,893.385,260.746z"/>
</g>
<g>
	<path style="fill:#A37B90;" d="M884.03,256.831c-0.344,0-0.631-0.27-0.649-0.617l-1.101-20.974   c-0.409-0.955-2.901-7.265-2.232-17.895c0.714-11.334,6.633-20.325,6.885-20.702c0.199-0.3,0.604-0.378,0.902-0.18   c0.299,0.199,0.38,0.604,0.181,0.902c-0.061,0.09-5.978,9.088-6.669,20.062c-0.692,10.999,2.14,17.325,2.168,17.388   c0.034,0.075,0.054,0.155,0.059,0.237l1.107,21.093c0.019,0.359-0.257,0.665-0.616,0.685   C884.053,256.83,884.042,256.831,884.03,256.831z"/>
</g>
<g>
	<path style="fill:#A37B90;" d="M956.863,252.191c-3.813,0-11.883-5.697-13.589-6.934c-0.238-0.173-0.331-0.484-0.227-0.76   c0.106-0.274,0.369-0.44,0.675-0.415c1.258,0.129,12.353,1.359,14.761,4.647c0.443,0.605,0.598,1.252,0.459,1.924   c-0.139,0.67-0.533,1.148-1.141,1.384C957.531,252.143,957.214,252.191,956.863,252.191z M946.227,245.724   c4.099,2.735,9.458,5.744,11.104,5.1c0.14-0.054,0.276-0.143,0.336-0.434c0.063-0.304-0.011-0.587-0.233-0.891   C956.046,247.605,950.211,246.336,946.227,245.724z"/>
</g>
<g>
	<path d="M858.461,281.104c-0.207,0-0.409-0.099-0.536-0.28c-0.205-0.296-0.131-0.701,0.165-0.906L872.408,270   c0.298-0.206,0.7-0.13,0.906,0.164c0.204,0.296,0.131,0.701-0.165,0.906l-14.319,9.918   C858.717,281.066,858.588,281.104,858.461,281.104z"/>
</g>
<g>
	<path d="M860.568,270.517c-0.224,0-0.44-0.115-0.562-0.321c-0.183-0.31-0.079-0.709,0.231-0.891l6.324-3.722   c0.311-0.186,0.71-0.078,0.891,0.23c0.183,0.309,0.079,0.709-0.23,0.891l-6.324,3.722   C860.794,270.487,860.679,270.517,860.568,270.517z"/>
</g>
<g>
	<g>
		<g>
			<path style="fill:#92B4EA;" d="M767.026,286.719l81.499-0.002c1.81,0,2.95-1.949,2.062-3.527l-27.892-52.564     c-0.419-0.745-1.207-1.206-2.062-1.206l-81.499,0.001c-1.81,0-2.95,1.949-2.062,3.527l27.892,52.564     C765.383,286.258,766.172,286.719,767.026,286.719z"/>
		</g>
	</g>
	<g>
		<g>
			<path style="fill:#6876AA;" d="M766.03,290.736h98.615c0.91,0,1.648-0.738,1.648-1.648v-4.317c0-0.91-0.738-1.648-1.648-1.648     H766.03c-0.91,0-1.648,0.738-1.648,1.648v4.317C764.382,289.998,765.12,290.736,766.03,290.736z"/>
		</g>
	</g>
	<g>
		<path style="fill:#F7B369;" d="M792.494,291.029h-79.867c-3.876,0-7.018-3.142-7.018-7.017v-0.126    c0-3.876,3.142-7.017,7.018-7.017h79.867c1.379,0,2.498,1.118,2.498,2.498v9.166C794.991,289.91,793.873,291.029,792.494,291.029z    "/>
	</g>
	<g>
		<path style="fill:#FFC892;" d="M803.335,291.178h-70.261c-3.649,0-6.606-2.958-6.606-6.607v-0.948    c0-3.649,2.958-6.607,6.606-6.607h70.261c1.299,0,2.351,1.053,2.351,2.351v9.459C805.687,290.126,804.634,291.178,803.335,291.178    z"/>
	</g>
	<g>
		<path style="fill:none;" d="M805.687,288.444h-71.499c-2.483,0-4.496-2.013-4.496-4.496c0-2.483,2.013-4.496,4.496-4.496    h71.499V288.444z"/>
	</g>
	<g>
		<path style="fill:#C8BCCE;" d="M712.417,277.129h79.034c3.911,0,7.081-3.17,7.081-7.081c0-3.911-3.17-7.081-7.081-7.081h-79.034    c-0.102,0-0.185,0.083-0.185,0.185v13.791C712.232,277.046,712.315,277.129,712.417,277.129z"/>
	</g>
	<g>
		<path style="fill:#ECE8EF;" d="M710.552,277.129h61.101c3.911,0,7.081-3.17,7.081-7.081c0-3.911-3.17-7.081-7.081-7.081h-61.101    c-1.224,0-2.217,0.992-2.217,2.217v9.728C708.336,276.137,709.328,277.129,710.552,277.129z"/>
	</g>
	<g>
		<path style="fill:none;" d="M708.336,274.395h63.038c2.483,0,4.496-2.013,4.496-4.496s-2.013-4.496-4.496-4.496h-63.038    V274.395z"/>
	</g>
	<g>
		<path style="fill:#B1A5B7;" d="M718.889,263.08h63.515c3.911,0,7.081-3.17,7.081-7.081c0-3.911-3.17-7.081-7.081-7.081h-63.515    c-0.447,0-0.809,0.362-0.809,0.808v12.544C718.08,262.718,718.442,263.08,718.889,263.08z"/>
	</g>
	<g>
		<path style="fill:#C8BCCE;" d="M716.873,263.08h49.151c3.911,0,7.081-3.17,7.081-7.081c0-3.911-3.17-7.081-7.081-7.081h-49.151    c-1.114,0-2.016,0.903-2.016,2.016v10.129C714.857,262.178,715.759,263.08,716.873,263.08z"/>
	</g>
	<g>
		<path style="fill:#ECE8EF;" d="M714.857,260.345h51.382c2.483,0,4.496-2.013,4.496-4.496c0-2.483-2.013-4.496-4.496-4.496h-51.382    V260.345z"/>
	</g>
	<g>
		<path style="fill:none;" d="M766.367,236.566H738.74c-0.359,0-0.651-0.292-0.651-0.651c0-0.359,0.292-0.651,0.651-0.651h27.627    c0.359,0,0.651,0.292,0.651,0.651C767.018,236.274,766.726,236.566,766.367,236.566z"/>
	</g>
</g>
<g>
	<path d="M908.689,164.323c-0.596,0-1.133-0.176-1.604-0.525c-1.261-0.936-1.524-2.809-1.535-2.888   c-0.042-0.315,0.15-0.615,0.454-0.708l8.73-2.684c0.266-0.08,0.547,0.013,0.711,0.23c0.165,0.219,0.176,0.518,0.025,0.747   c-0.356,0.546-3.553,5.344-6.25,5.784C909.039,164.308,908.861,164.323,908.689,164.323z M906.963,161.269   c0.148,0.495,0.432,1.14,0.901,1.486c0.318,0.236,0.693,0.314,1.147,0.239c1.299-0.212,3.047-2.11,4.255-3.663L906.963,161.269z"/>
</g>
<g>
	<path d="M905.793,156.434c-0.274,0-0.529-0.175-0.619-0.45c-1.706-5.252,2.603-9.331,2.787-9.502   c0.264-0.244,0.675-0.228,0.918,0.034c0.245,0.263,0.23,0.674-0.032,0.919c-0.039,0.037-3.881,3.694-2.435,8.146   c0.111,0.342-0.076,0.709-0.418,0.82C905.927,156.424,905.859,156.434,905.793,156.434z"/>
</g>
<g>
	<path d="M904.22,147.61c-0.043,0-0.086-0.004-0.129-0.013c-0.352-0.07-0.581-0.413-0.511-0.766l0.751-3.756l-1.45-2.046   c-0.208-0.294-0.139-0.7,0.155-0.908c0.294-0.207,0.699-0.138,0.907,0.155l1.612,2.275c0.104,0.146,0.142,0.329,0.107,0.504   l-0.806,4.031C904.796,147.396,904.524,147.61,904.22,147.61z"/>
</g>
<g>
	<path d="M915.733,148.632c-0.043,0-0.086-0.004-0.129-0.013c-0.353-0.07-0.581-0.413-0.511-0.766l0.751-3.756l-1.45-2.046   c-0.208-0.294-0.139-0.7,0.155-0.908c0.294-0.208,0.7-0.138,0.907,0.155l1.612,2.275c0.104,0.146,0.143,0.329,0.107,0.504   l-0.806,4.031C916.308,148.418,916.037,148.632,915.733,148.632z"/>
</g>
<g>
	<path d="M902.822,138.384c-0.141,0-0.282-0.045-0.401-0.139c-0.283-0.222-0.333-0.631-0.111-0.914   c1.457-1.86,3.904-1.258,4.996-0.679c0.317,0.168,0.438,0.561,0.271,0.878c-0.166,0.317-0.561,0.441-0.878,0.273   c-0.091-0.047-2.216-1.134-3.363,0.33C903.206,138.299,903.014,138.384,902.822,138.384z"/>
</g>
<g>
	<path d="M920.155,139.304c-0.11,0-0.222-0.028-0.324-0.087c-3.005-1.733-5.087-0.918-5.173-0.883c-0.33,0.134-0.712-0.02-0.85-0.35   c-0.139-0.33,0.013-0.708,0.342-0.849c0.108-0.047,2.729-1.127,6.331,0.954c0.312,0.18,0.418,0.578,0.238,0.889   C920.599,139.188,920.381,139.304,920.155,139.304z"/>
</g>
<g>
	<path d="M931.281,159.688c-0.162,0-0.325-0.061-0.451-0.182c-0.259-0.249-0.267-0.661-0.018-0.92l6.195-6.437   c0.25-0.259,0.662-0.267,0.92-0.018c0.259,0.249,0.267,0.661,0.018,0.92l-6.195,6.436   C931.622,159.621,931.452,159.688,931.281,159.688z"/>
</g>
<g>
	<path d="M938.149,158.174c-0.049,0-0.098-0.005-0.146-0.017l-4.431-1.018c-0.351-0.081-0.569-0.43-0.489-0.78   c0.08-0.351,0.436-0.567,0.78-0.489l4.431,1.018c0.351,0.08,0.569,0.43,0.489,0.78C938.714,157.97,938.445,158.174,938.149,158.174   z"/>
</g>
<g>
	<path style="fill:#F48462;" d="M479.289,256.426c0,0,19.989-3.24,27.479-4.029c8.244-0.868,12.818,3.705,15.621,6.8   c4.766,5.263,4.861,15.77,4.195,17.574c-1.013,2.742-6.034-2.87-6.034-2.87s0.49,2.19-1.874,4.16s-4.891,1.563-4.891,1.563   s0.393,4.197-1.756,4.451c-2.149,0.254-11.261,2.377-12.16-0.197c-0.899-2.574,5.85-5.818,5.85-5.818l-1.399-4.451   c0,0-3.771,8.952-12.035,9.047s-12.595-9.017-12.595-9.017L479.289,256.426z"/>
</g>
<g>
	<path d="M520.552,274.552c-0.033,0-0.067-0.003-0.101-0.008c-0.354-0.055-0.599-0.388-0.544-0.743   c0.781-5.057-4.356-9.234-4.408-9.275c-0.28-0.225-0.326-0.634-0.101-0.915c0.223-0.279,0.633-0.327,0.914-0.103   c0.236,0.188,5.779,4.684,4.883,10.492C521.144,274.321,520.867,274.552,520.552,274.552z"/>
</g>
<g>
	<path d="M513.786,280.274c-0.08,0-0.16-0.015-0.239-0.046c-0.334-0.132-0.498-0.51-0.366-0.845   c1.605-4.069-1.783-9.058-1.817-9.107c-0.204-0.296-0.13-0.701,0.165-0.905c0.296-0.203,0.701-0.131,0.905,0.165   c0.157,0.227,3.82,5.605,1.958,10.326C514.291,280.118,514.045,280.274,513.786,280.274z"/>
</g>
<g>
	<path style="fill:#F7B369;" d="M470.044,289.276v-40.634c0-1.05,0.851-1.901,1.901-1.901h9.568c1.05,0,1.901,0.851,1.901,1.901   v40.634c0,1.05-0.851,1.901-1.901,1.901h-9.568C470.895,291.177,470.044,290.326,470.044,289.276z"/>
</g>
<g>
	<g>
		<g>
			<path style="fill:#EEEDEF;" d="M192.03,235.322c0,0,5.496-4.466,16.778-6.636c11.282-2.17,21.985-1.906,21.985-1.906     l2.025,10.556L192.03,235.322z"/>
		</g>
		<g>
			<path style="fill:#EEEDEF;" d="M193.621,236.34c0,0-11.426-6.497-21.841-7.365c-10.414-0.868-19.526,1.157-19.526,1.157     l2.459,9.217L193.621,236.34z"/>
		</g>
		<g>
			<polygon style="fill:#C8BCCE;" points="243.952,294.177 160.314,294.177 150.472,234.022 234.123,234.022    "/>
		</g>
		<g>
			<polygon style="fill:#DDD5E2;" points="205.55,294.177 198.273,294.177 188.874,234.022 195.865,234.022    "/>
		</g>
		<g>
			<path style="fill:#B1A5B7;" d="M221.391,294.83c-0.308,0-0.581-0.22-0.639-0.533l-1.42-7.668     c-0.126-0.679-0.718-1.172-1.409-1.172h-34.963c-0.411,0-0.802,0.177-1.074,0.484c-0.271,0.308-0.398,0.717-0.348,1.124     l0.868,7.033c0.044,0.357-0.209,0.682-0.566,0.726c-0.349,0.052-0.682-0.209-0.726-0.565l-0.868-7.033     c-0.096-0.777,0.146-1.56,0.665-2.146c0.519-0.587,1.266-0.924,2.049-0.924h34.963c1.318,0,2.448,0.941,2.689,2.236l1.42,7.669     c0.065,0.354-0.168,0.692-0.521,0.758C221.471,294.826,221.431,294.83,221.391,294.83z"/>
		</g>
	</g>
	<g>
		<path style="fill:#B1A5B7;" d="M243.952,294.828h-83.638c-0.359,0-0.651-0.292-0.651-0.651c0-0.359,0.292-0.651,0.651-0.651    h83.638c0.359,0,0.651,0.292,0.651,0.651C244.603,294.536,244.311,294.828,243.952,294.828z"/>
	</g>
</g>
<g>
	<path style="fill:#465884;" d="M243.951,264.751c-0.288,0-0.551-0.192-0.629-0.484c-4.511-16.949,8.707-42.864,9.271-43.96   c0.166-0.319,0.559-0.444,0.877-0.279c0.319,0.164,0.445,0.557,0.28,0.877c-0.136,0.264-13.552,26.565-9.17,43.028   c0.093,0.347-0.114,0.703-0.462,0.796C244.063,264.743,244.007,264.751,243.951,264.751z"/>
</g>
</svg>